<svg viewBox="0 0 1455 400" xmlns="http://www.w3.org/2000/svg"><g><g><g><g><g><line x1="70" y1="378" x2="65" y2="378" style="visibility: inherit;" fill="rgb(0, 0, 0)" stroke="rgb(204, 204, 204)" stroke-width="1px"></line><line x1="70" y1="330.75" x2="65" y2="330.75" style="visibility: inherit;" fill="rgb(0, 0, 0)" stroke="rgb(204, 204, 204)" stroke-width="1px"></line><line x1="70" y1="283.5" x2="65" y2="283.5" style="visibility: inherit;" fill="rgb(0, 0, 0)" stroke="rgb(204, 204, 204)" stroke-width="1px"></line><line x1="70" y1="236.24999999999997" x2="65" y2="236.24999999999997" style="visibility: inherit;" fill="rgb(0, 0, 0)" stroke="rgb(204, 204, 204)" stroke-width="1px"></line><line x1="70" y1="189" x2="65" y2="189" style="visibility: inherit;" fill="rgb(0, 0, 0)" stroke="rgb(204, 204, 204)" stroke-width="1px"></line><line x1="70" y1="141.74999999999997" x2="65" y2="141.74999999999997" style="visibility: inherit;" fill="rgb(0, 0, 0)" stroke="rgb(204, 204, 204)" stroke-width="1px"></line><line x1="70" y1="94.49999999999994" x2="65" y2="94.49999999999994" style="visibility: inherit;" fill="rgb(0, 0, 0)" stroke="rgb(204, 204, 204)" stroke-width="1px"></line><line x1="70" y1="47.25000000000006" x2="65" y2="47.25000000000006" style="visibility: inherit;" fill="rgb(0, 0, 0)" stroke="rgb(204, 204, 204)" stroke-width="1px"></line><line x1="70" y1="0" x2="65" y2="0" style="visibility: inherit;" fill="rgb(0, 0, 0)" stroke="rgb(204, 204, 204)" stroke-width="1px"></line></g><g transform="translate(60, 0)"><text x="0" y="378" dx="0em" dy="0.3em" style="text-anchor: end; visibility: hidden; font-family: &quot;Helvetica Neue&quot;, sans-serif; font-size: 12px; font-weight: 200;" fill="rgb(50, 49, 63)" stroke="none" stroke-width="1px">5e-4</text><text x="0" y="330.75" dx="0em" dy="0.3em" style="text-anchor: end; visibility: inherit; font-family: &quot;Helvetica Neue&quot;, sans-serif; font-size: 12px; font-weight: 200;" fill="rgb(50, 49, 63)" stroke="none" stroke-width="1px">6e-4</text><text x="0" y="283.5" dx="0em" dy="0.3em" style="text-anchor: end; visibility: inherit; font-family: &quot;Helvetica Neue&quot;, sans-serif; font-size: 12px; font-weight: 200;" fill="rgb(50, 49, 63)" stroke="none" stroke-width="1px">7e-4</text><text x="0" y="236.24999999999997" dx="0em" dy="0.3em" style="text-anchor: end; visibility: inherit; font-family: &quot;Helvetica Neue&quot;, sans-serif; font-size: 12px; font-weight: 200;" fill="rgb(50, 49, 63)" stroke="none" stroke-width="1px">8e-4</text><text x="0" y="189" dx="0em" dy="0.3em" style="text-anchor: end; visibility: inherit; font-family: &quot;Helvetica Neue&quot;, sans-serif; font-size: 12px; font-weight: 200;" fill="rgb(50, 49, 63)" stroke="none" stroke-width="1px">9e-4</text><text x="0" y="141.74999999999997" dx="0em" dy="0.3em" style="text-anchor: end; visibility: inherit; font-family: &quot;Helvetica Neue&quot;, sans-serif; font-size: 12px; font-weight: 200;" fill="rgb(50, 49, 63)" stroke="none" stroke-width="1px">1e-3</text><text x="0" y="94.49999999999994" dx="0em" dy="0.3em" style="text-anchor: end; visibility: inherit; font-family: &quot;Helvetica Neue&quot;, sans-serif; font-size: 12px; font-weight: 200;" fill="rgb(50, 49, 63)" stroke="none" stroke-width="1px">1.1e-3</text><text x="0" y="47.25000000000006" dx="0em" dy="0.3em" style="text-anchor: end; visibility: inherit; font-family: &quot;Helvetica Neue&quot;, sans-serif; font-size: 12px; font-weight: 200;" fill="rgb(50, 49, 63)" stroke="none" stroke-width="1px">1.2e-3</text><text x="0" y="0" dx="0em" dy="0.3em" style="text-anchor: end; visibility: hidden; font-family: &quot;Helvetica Neue&quot;, sans-serif; font-size: 12px; font-weight: 200;" fill="rgb(50, 49, 63)" stroke="none" stroke-width="1px">1.3e-3</text></g><line x1="70" y1="0" x2="70" y2="378" fill="rgb(0, 0, 0)" stroke="rgb(204, 204, 204)" stroke-width="1px"></line></g></g><g transform="translate(70, 0)" clip-path="url(#clip_0)"><clipPath id="clip_0"><rect width="1385" height="378"></rect></clipPath><g><g><g><line x1="0" y1="0" x2="0" y2="378" fill="rgb(0, 0, 0)" stroke="rgb(60, 60, 60)" stroke-width="1px" opacity="0.25"></line><line x1="138.5" y1="0" x2="138.5" y2="378" fill="rgb(0, 0, 0)" stroke="rgb(60, 60, 60)" stroke-width="1px" opacity="0.25"></line><line x1="277" y1="0" x2="277" y2="378" fill="rgb(0, 0, 0)" stroke="rgb(60, 60, 60)" stroke-width="1px" opacity="0.25"></line><line x1="415.5" y1="0" x2="415.5" y2="378" fill="rgb(0, 0, 0)" stroke="rgb(60, 60, 60)" stroke-width="1px" opacity="0.25"></line><line x1="554" y1="0" x2="554" y2="378" fill="rgb(0, 0, 0)" stroke="rgb(60, 60, 60)" stroke-width="1px" opacity="0.25"></line><line x1="692.5" y1="0" x2="692.5" y2="378" fill="rgb(0, 0, 0)" stroke="rgb(60, 60, 60)" stroke-width="1px" opacity="0.25"></line><line x1="831" y1="0" x2="831" y2="378" fill="rgb(0, 0, 0)" stroke="rgb(60, 60, 60)" stroke-width="1px" opacity="0.25"></line><line x1="969.4999999999999" y1="0" x2="969.4999999999999" y2="378" fill="rgb(0, 0, 0)" stroke="rgb(60, 60, 60)" stroke-width="1px" opacity="0.25"></line><line x1="1108" y1="0" x2="1108" y2="378" fill="rgb(0, 0, 0)" stroke="rgb(60, 60, 60)" stroke-width="1px" opacity="0.25"></line><line x1="1246.5" y1="0" x2="1246.5" y2="378" fill="rgb(0, 0, 0)" stroke="rgb(60, 60, 60)" stroke-width="1px" opacity="0.25"></line><line x1="1385" y1="0" x2="1385" y2="378" fill="rgb(0, 0, 0)" stroke="rgb(60, 60, 60)" stroke-width="1px" opacity="0.25"></line></g><g><line x1="0" y1="378" x2="1385" y2="378" fill="rgb(0, 0, 0)" stroke="rgb(60, 60, 60)" stroke-width="1px" opacity="0.25"></line><line x1="0" y1="330.75" x2="1385" y2="330.75" fill="rgb(0, 0, 0)" stroke="rgb(60, 60, 60)" stroke-width="1px" opacity="0.25"></line><line x1="0" y1="283.5" x2="1385" y2="283.5" fill="rgb(0, 0, 0)" stroke="rgb(60, 60, 60)" stroke-width="1px" opacity="0.25"></line><line x1="0" y1="236.24999999999997" x2="1385" y2="236.24999999999997" fill="rgb(0, 0, 0)" stroke="rgb(60, 60, 60)" stroke-width="1px" opacity="0.25"></line><line x1="0" y1="189" x2="1385" y2="189" fill="rgb(0, 0, 0)" stroke="rgb(60, 60, 60)" stroke-width="1px" opacity="0.25"></line><line x1="0" y1="141.74999999999997" x2="1385" y2="141.74999999999997" fill="rgb(0, 0, 0)" stroke="rgb(60, 60, 60)" stroke-width="1px" opacity="0.25"></line><line x1="0" y1="94.49999999999994" x2="1385" y2="94.49999999999994" fill="rgb(0, 0, 0)" stroke="rgb(60, 60, 60)" stroke-width="1px" opacity="0.25"></line><line x1="0" y1="47.25000000000006" x2="1385" y2="47.25000000000006" fill="rgb(0, 0, 0)" stroke="rgb(60, 60, 60)" stroke-width="1px" opacity="0.25"></line><line x1="0" y1="0" x2="1385" y2="0" fill="rgb(0, 0, 0)" stroke="rgb(60, 60, 60)" stroke-width="1px" opacity="0.25"></line></g></g></g><g><g><line x1="0" y1="614.25" x2="1385" y2="614.25" fill="rgb(0, 0, 0)" stroke="rgb(153, 153, 153)" stroke-width="1.5px"></line></g></g><g><g><line x1="138.5" y1="0" x2="138.5" y2="378" fill="rgb(0, 0, 0)" stroke="rgb(153, 153, 153)" stroke-width="1.5px"></line></g></g><g><g><g><g><g><path stroke="rgb(255, 112, 67)" stroke-width="2px" d="M138.5,280.62148027075455L166.2,-20026.30903883855L154.566,-38.64316189871869L155.12,91.63322455422269L157.89000000000001,168.71795279211932L158.444,216.6218152436312L162.322,244.99956235992877L163.153,263.3971641420745L163.984,272.5825980042157L164.261,279.75663093600815L165.923,282.462250337186L167.031,284.0546644662665L167.585,285.47402456694306L167.862,287.47618413779713L170.355,285.38911886923654L171.186,280.99157892488324L172.84799999999998,283.2954535930105L173.125,284.6837520715034L173.40200000000002,286.11693724221726L173.679,287.2387880574457L174.233,291.7340841113689L175.34099999999998,282.94972134970726L176.449,282.28981470288323L176.726,283.6209126196033L177.55700000000002,285.8476543624238L177.83399999999997,280.0536366184599L178.111,283.4606297822883L181.435,283.6149103004241L182.543,285.1902488074677L182.82000000000002,286.862612396224L184.759,286.8027819412163L185.31300000000002,286.7602169119767L189.191,287.8507764976667L190.853,283.055996135485L191.684,280.991416059054L192.79199999999997,286.6593944689771L194.177,286.5475490639107L195.008,285.9857597072309L197.501,288.3465111175931L206.642,288.12042064421286L208.027,287.3038551218795L211.628,287.08219224007723L213.29,288.4512168910052L213.567,286.6245873039965L213.84400000000002,289.6739567740115L214.675,284.399742641388L216.33700000000002,283.08229068260334L216.614,283.4043207024988L218.553,282.11266727992256L219.938,283.4075820236369L220.76899999999998,285.6898426230007L223.816,284.44355328015627L224.093,282.02178578707L224.37,285.00500051448813L224.64700000000002,285.3245025549349L227.41700000000003,279.29228077636753L229.633,282.6694113442323L230.18699999999998,284.90179806459446L231.018,286.39454348772244L231.29500000000002,285.4294726733981L232.126,285.89519669657165L233.788,286.49803479536376L234.34199999999998,286.3498628176317L235.45000000000002,286.1136969264337L238.21999999999997,286.3631467612491L239.05100000000002,286.5154679628853L239.605,286.04228764223785L240.71300000000002,286.3874638092383L241.544,286.5771215302491L245.422,284.770175286043L247.915,285.5108725407732L249.577,282.7567330692492L251.239,282.70885840312957L251.79299999999998,284.0540464515243L253.45499999999998,285.8719429375271L254.00900000000001,288.0661059947671L254.28600000000003,289.20929016949526L255.117,287.12291920408927L255.394,286.5897971497309L256.502,286.67393374545986L257.056,286.75271091252864L257.33299999999997,286.9159193645212L259.54900000000004,286.8288474508177L262.319,284.2786719527983L262.873,284.7730382973674L264.258,281.34175323393407L265.366,282.14038032121715L267.305,283.97773763713843L269.24399999999997,284.06990743087295L277,285.0366186916847L277.831,285.7360309905198L279.493,286.0283059214882L280.878,286.2779623072234L281.432,285.6883842689514L281.986,285.9343924784419L282.53999999999996,286.4852041413826L283.925,286.20735513332136L284.202,286.83921531321573L285.31,286.79762169847686L286.695,287.81214044115575L290.019,280.48341831404565L290.296,282.726461269117L291.127,284.29128888435685L292.512,285.2578095870094L292.789,286.90574515845634L295.559,283.63012577668957L296.944,284.6162019413777L297.221,285.7845660595152L298.329,285.0670946257891L298.883,284.553684358788L300.268,285.4091191765807L300.545,286.0632730492737L300.822,286.33348650234035L301.65299999999996,286.1014948677098L304.423,286.12266507775416L306.639,286.04086648421116L306.916,286.2904382051699L308.301,285.9871498487024L309.686,286.89033992892524L311.348,286.36490190332614L311.625,286.808252140279L312.733,285.9911234179633L314.118,286.26786419029145L316.05699999999996,286.96578598652104L316.334,287.37344980636277L316.888,284.9520716866048L317.442,285.77772427118595L321.043,286.4537783151561L321.32,286.89353661256325L321.87399999999997,286.73911314412084L324.36699999999996,280.7101636868962L329.076,274.471812704861L329.353,276.2921111825689L330.184,275.5857732566906L330.738,281.6036742076777L331.846,284.20563334842416L332.4,285.79480700880964L341.264,286.88687192250075L342.09499999999997,283.71830812248606L343.48,283.26176570838254L345.973,282.0993134710077L347.08099999999996,284.1409548363691L350.12800000000004,284.5246192214663L350.68199999999996,286.6408057871811L351.51300000000003,284.8098820099184L355.391,285.0308614231951L357.33,285.72376462984795L357.60699999999997,286.10512765411266L358.71500000000003,286.26572673036515L359.823,283.2440464852273L360.377,286.53309808383995L361.20799999999997,289.3644283577315L363.147,291.1729859724909L363.42400000000004,290.3085893987466L363.701,289.8949253620825L363.97799999999995,289.68615541260294L364.532,292.3431860487587L366.194,291.18784053714876L366.471,283.68817214787714L368.133,284.51381119887577L369.241,285.33210325820704L372.011,287.1219958348518L372.565,286.6889474380207L372.842,284.0833223075087L373.396,285.149971562686L384.753,284.566897379104L385.307,286.91205057261135L388.908,286.2898522987492L390.293,286.5371577341759L390.56999999999994,286.66897311607545L391.12399999999997,286.62011783199114L391.401,286.69264321346793L391.678,286.7803284527232L392.786,285.50822432887526L393.894,284.9236441231636L395.002,286.18083839464896L395.279,287.96357361491L396.94100000000003,286.2780732210717L399.43399999999997,287.04443163122926L402.204,289.95890011783285L403.86600000000004,290.68178084942826L404.14300000000003,285.3253764919937L406.636,285.2633253970184L408.02099999999996,286.08490715833386L409.683,280.24438278557363L411.068,283.4503013287313L413.007,283.9701592284599L414.669,285.1059354219792L415.223,285.5468148474892L415.77700000000004,285.69514732234177L416.885,285.9969439456276L417.439,290.02390417238917L417.71599999999995,285.17384407212717L418.824,285.0919208153696L419.101,286.12422253487176L419.655,286.4319822181995L419.932,287.0122649056307L420.76300000000003,287.39718968736554L421.03999999999996,285.3249452959108L422.148,286.50498655497927L422.979,287.5114861675383L423.81,287.78984800809064L424.918,283.0559411823135L425.749,284.40834868632294L426.02599999999995,282.58928480033603L427.965,283.3570573659809L432.12,285.5665232785536L433.505,284.8363556236695L434.059,284.98480856569756L435.167,286.85426728685735L435.444,286.7820540923292L436.275,288.99953762790057L439.045,290.89102538530074L439.322,287.87884362159843L440.153,286.54367512004404L440.43,285.57508001964135L441.53799999999995,285.0942543403631L443.2,285.3367561657958L443.754,283.79113443067564L446.24699999999996,282.80173635387206L452.618,285.7722268002892L459.82000000000005,285.9955452276864L462.59000000000003,284.59512623026063L462.867,284.13032542056794L463.14399999999995,285.4735569369761L463.975,286.3640074332859L464.52899999999994,286.61527062851894L465.36,284.8231971630378L465.637,285.8599836592665L466.19100000000003,286.1153509603316L472.008,288.44616935404764L475.332,290.1602751916431L476.43999999999994,287.68847164583394L477.825,287.93460967024976L478.656,289.1846945344817L480.872,293.6452903539895L481.149,295.1566927004805L481.42600000000004,285.7471358807877L483.088,285.0333382369464L484.196,285.53389501190617L484.74999999999994,289.4266645802606L488.905,285.6286245525695L490.013,289.6088175196315L491.67499999999995,292.3752992193283L492.50600000000003,289.23078925822347L494.72200000000004,284.34008252653354L495.27599999999995,282.04781232942867L495.553,281.18134593710886L495.83,282.3892560913896L498.32300000000004,276.65656669292883L498.877,280.64309242858167L499.154,281.22447749474975L499.431,285.05720572592287L500.539,286.87118157427517L501.924,287.5391763968006L503.863,290.9276261909447L507.741,290.3065900022658L508.295,289.2847296434938L508.57200000000006,289.69004295249573L510.234,286.64891838605575L510.788,283.00253600308895L513.835,285.9321020585946L514.943,287.39028871248445L515.22,286.17009004859045L519.375,287.8759904039191L519.929,286.7440341110959L520.206,287.5283453439733L520.76,284.5808113534971L521.0369999999999,287.1714254321179L521.868,289.17141042724006L522.422,284.5373186425105L523.253,286.8231692616521L523.53,287.60727900208923L526.023,280.1465931861924L526.577,282.35363782604867L527.6850000000001,283.3715898680744L527.962,280.89008632501185L529.07,283.7350488056256L530.178,285.6789931740322L530.455,286.0423127024447L531.84,288.6184219095677L534.333,287.3913989174258L535.718,291.5426215223084L539.3190000000001,292.30257275613303L540.427,294.5991182797009L542.366,305.8162976969617L547.9060000000001,295.3856267134078L553.169,292.71909856301045L554,290.0210591086276L555.385,289.36487763209806L556.216,293.98476745741016L558.1550000000001,291.557544592825L560.9250000000001,290.9379437878139L561.202,287.22313509036053L562.864,287.715694575527L563.1410000000001,293.70230782681324L563.972,292.0576487674221L565.0799999999999,294.01544734808607L565.357,287.32689654093787L565.9110000000001,285.6649307580437L566.742,280.88869061533865L567.296,286.00247067694664L567.85,270.5002471936892L569.789,267.13656163338726L570.897,273.7610076661157L573.113,275.3850716480015L573.944,285.46265764117004L574.498,286.0659457873651L574.775,294.0771853599756L575.606,288.06086840333774L576.16,282.5132414132862L576.437,280.4140106685018L576.7139999999999,285.74875223544575L580.3149999999999,289.1613601966826L583.085,286.3339309846462L583.9159999999999,285.24400525859227L584.47,287.19253803291906L588.0709999999999,297.85948607166625L588.3480000000001,309.4246747824141L589.7330000000001,313.1081557103299L590.841,308.1975545406448L591.118,305.3955412126955L594.165,294.27126905388394L594.719,283.90077051485633L595.273,287.5414971912991L596.381,298.24811590018294L597.766,290.8185016615647L598.043,295.33863151494535L598.597,296.3115331457115L599.151,295.9045457421501L599.982,289.8048400872765L603.3059999999999,299.0566313070285L604.691,291.136622963606L605.5219999999999,296.26486071039506L606.9069999999999,289.4893057528616L608.015,291.91914254971107L609.677,287.3252911548183L611.616,289.55506490808295L613.001,280.29292976251435L614.94,282.8601252649013L615.494,278.5455564247278L617.433,287.4472775266965L619.926,294.3942173519261L621.588,296.5861280732842L622.1419999999999,287.2094806959884L623.5269999999999,290.22460946381284L623.8040000000001,291.2347540985953L628.236,292.94944763287L629.898,292.8914724746404L632.391,311.09263095090137L636.546,301.8249689959062L636.823,295.0724306165656L639.039,292.11145029329396L639.593,294.3597676594035L640.424,284.67480345637955L640.701,286.53179374091013L641.255,290.09869413125705L642.64,291.62333654724847L646.518,293.05613775730603L647.3489999999999,290.0443583291537L648.1800000000001,285.7013710134225L649.288,285.72965141670016L650.3960000000001,289.866642008192L651.227,296.05303354401013L651.7810000000001,296.9651718854599L654.551,303.03921781169277L655.659,280.37425999557246L656.213,282.14486473470714L657.598,286.23187767554697L661.753,298.89591680622846L662.861,295.01888358071744L664.523,297.2839464517701L665.354,298.28091110310066L666.185,303.5989332833654L667.016,306.5903819768513L669.509,309.9841065570792L671.448,285.66194537390504L672.0020000000001,290.947859637159L673.664,293.1949293280202L673.9409999999999,290.7532522378784L674.218,275.8976920432402L675.326,276.7156857875543L675.88,272.75073460206727L678.096,283.35205929416986L678.373,290.62892802311745L678.927,287.77181690225757L679.204,294.30700099575745L679.481,290.0143047290786L679.758,291.86052855507995L682.528,296.19400475863495L684.467,300.88263339199204L685.021,267.52253030170175L685.852,282.2377051414426L686.96,283.156923797343L688.068,294.0179664372772L689.1759999999999,296.97905470335826L694.1619999999999,295.03684581861626L696.655,298.3310633503763L699.702,288.31200916545055L699.9789999999999,302.8271230573294L700.8100000000001,300.73422008450103L701.087,308.6875349184961L701.918,295.26443888244205L702.7489999999999,315.15843749053954L703.0260000000001,325.0709700806524L704.965,319.5280162273994L706.0730000000001,300.4001724274509L706.627,313.66698889769555L710.505,290.3986944275532L710.782,312.05795428195574L711.89,302.2704098224169L712.7209999999999,291.8455557591931L715.2139999999999,289.1133309128711L715.768,271.5204813383157L718.815,280.65113069083225L720.754,287.1812286015431L724.0780000000001,281.4219846153717L724.909,296.19078647956763L725.4630000000001,306.36346035426413L735.989,287.1771759525347L740.144,288.09500024688066L740.975,291.0841764295657L741.2520000000001,288.23715774716044L743.4680000000001,298.5941031334987L744.5759999999999,284.8984319179545L745.9609999999999,292.0038423125581L747.6229999999999,285.23857954434743L747.9000000000001,276.6345423407574L751.224,282.8831864184905L754.825,285.20818431410305L755.102,287.53361359368256L755.656,287.86769078777644L757.0409999999999,304.4008977902877L757.318,301.97776287249167L757.8720000000001,280.8785904830221L760.642,282.7618786925203L760.919,280.3138717545979L765.9050000000001,277.26869877844155L766.182,279.37454112151846L767.567,292.11022485940657L770.0600000000001,290.1352682817295L770.891,302.0989088315816L773.661,307.14082683682375L774.215,308.3167448745887L774.769,263.0296645812971L775.323,278.2267095125076L776.4309999999999,287.4231773463887L776.9850000000001,302.856306770418L777.2620000000001,309.80299603123524L778.3700000000001,306.4595885391775L778.647,306.5909214946512L779.201,302.2245020301124L780.032,307.12138500267895L782.802,302.5163551374428L784.741,290.6553381982872L786.126,294.73688728382757L788.0649999999999,296.8923144420904L788.619,312.7887922350122L789.173,310.08407218615287L789.7270000000001,304.3090391571675L790.004,287.8237233989711L791.389,306.1605809568703L793.328,300.6501194084228L795.544,299.83620819770795L796.652,292.8873126270905L798.8679999999999,310.92666749963746L803.854,297.85850729009263L805.516,292.80820971238313L809.1170000000001,292.64589147786535L809.671,294.3174351940206L810.2249999999999,291.9534625037924L811.8870000000001,291.0341615024606L814.38,283.90085331171525L816.0419999999999,280.32016272083536L816.3190000000001,287.1646964700035L816.8729999999999,285.1229182723581L819.92,285.4366839092959L822.413,286.5426453898356L822.967,288.43623880352857L823.5210000000001,289.85361975213533L824.9060000000001,290.693146084618L825.183,300.9957504086361L826.291,296.5677645223314L827.122,292.10699935908093L827.676,295.1512881869374L829.338,297.98484971008736L829.8919999999999,292.94833946092524L830.1690000000001,293.1811855101278L831.5540000000001,297.7821962019207L833.493,299.8221548712307L835.7090000000001,289.6161195240239L840.6949999999999,297.97075663862415L841.249,274.8849215762595L842.9110000000001,285.75945130487344L843.742,276.6444430694919L844.296,270.5035149095023L845.127,284.9989932428153L845.681,283.3033243309916L845.958,274.15652883635227L847.066,282.5947992572115L848.451,285.2068044885167L849.2819999999999,283.0788314696651L850.39,274.8367395574377L851.221,280.1236350811736L852.0519999999999,283.4244649934972L852.883,282.13826338695833L853.9910000000001,282.1603154636761L855.3760000000001,283.9136360945457L856.7610000000001,288.0294100092518L857.592,284.2099009763326L858.7,289.96954685143385L860.6389999999999,289.28841411017555L860.916,292.5872430219654L861.193,295.05853817818854L862.301,293.0157233508612L863.409,292.7329074080659L863.686,295.0563976530879L863.9630000000001,298.83500128391904L864.794,303.01660062417625L865.071,309.63590147969273L866.7330000000001,282.760620918324L867.841,288.59057703328153L868.118,291.9283835338959L868.672,295.0330624376742L870.6110000000001,298.4270784706627L870.888,292.84634504946723L872.273,297.3719601802426L872.55,295.46690414662794L872.827,290.9715372587741L873.3810000000001,296.6656619876549L874.7660000000001,297.14500165476954L876.428,297.93492243472963L880.5830000000001,297.98553588177924L892.217,302.07613451712893L893.325,301.2628480370854L894.156,305.1559361090557L894.71,295.2553759302003L895.8180000000001,304.3223921629222L896.9259999999999,242.95906412772425L897.48,271.72485272036994L902.189,276.8300811745793L902.743,280.2356100858902L903.02,288.0602592307384L905.513,303.767847940601L906.067,303.1609792648604L911.33,291.78190259187147L913.5459999999999,287.4954038172139L916.87,284.5114308093554L917.424,296.832281694703L139.331,292.6435915270553L139.608,290.23660547631124L139.88500000000002,289.5145577613466L140.439,288.6856362474458L143.486,286.78945266451666L144.317,286.86064764538395L138.777,286.2640821177005L139.608,286.13015021108777L141.824,284.3449386793453L142.37800000000001,286.72199890104775L142.932,287.8018167385479L143.763,286.35406872492035L144.04,285.1303216366194L146.53300000000002,285.8272477270907L147.641,287.379158987507L150.688,287.16432775119233L151.796,287.32209952751117L152.35,286.00979099525847L156.78199999999998,286.2619577961644L160.383,284.9239199355419L162.59900000000002,282.03985913655833L163.153,287.3304960837538L165.092,285.2715956212737L165.369,287.0775063242448L167.031,286.0054022225362L169.247,287.5729505420362L172.017,288.88923815744056L172.29399999999998,289.11807909811324L178.388,290.5588335177029L178.942,292.76723161820917L180.60399999999998,290.0981464101L181.435,288.7551366011984L181.98899999999998,288.7764815426654L185.036,288.76824312028884L188.914,290.8947258424504L190.853,294.3700729684267L191.40699999999998,290.3560683875148L193.346,292.91730336353874L195.008,283.9200414378535L195.28499999999997,287.63877046758483L196.393,291.3736144451324L196.67,287.2537753085359L197.77800000000002,287.2436540757344L198.05499999999998,289.14263443334255L199.163,288.1550413764766L200.54800000000003,287.27822429754224L201.102,283.394707204713L203.04100000000003,290.52908054074334L203.318,285.67898781105544L203.595,293.11856517077405L205.811,293.22328712617787L206.642,292.6452426022689L207.75,297.1652469507508L208.304,303.10784301812373L209.68900000000002,301.4175544682811L213.567,299.07363850067827L215.783,292.2429036118285L216.891,293.627242610727L218.83,291.458520785402L219.38400000000001,290.82556949590867L220.215,292.98531578911974L220.49200000000002,292.79543403319576L220.76899999999998,290.85533082988593L222.43099999999998,289.4375471272907L222.708,288.4942684008049L225.478,287.16140417292297L227.41700000000003,293.01025680845726L228.80200000000002,291.99431507339034L229.07899999999998,287.3850593324934L230.464,289.71168651302514L232.40300000000002,294.30951001883216L233.511,293.08763359133184L234.619,291.0808712614888L234.89600000000002,294.47528048482917L239.328,298.2492650916942L239.88199999999998,307.5285135773282L242.098,312.52375574979703L242.929,305.7206263715127L245.699,301.07919227196123L245.976,297.55643410973755L247.63799999999998,297.3358739532114L248.746,292.8945690768707L251.239,300.92649751899376L251.51600000000002,306.52160560329025L252.901,301.2157927912951L254.00900000000001,306.9550762473594L254.28600000000003,307.2862392690398L254.563,309.5450967736575L256.225,307.484248768354L257.887,303.3141031917942L259.272,305.58584235883205L259.82599999999996,308.8380421531101L263.981,319.43313052462565L268.413,305.32987565838266L268.69,305.495640412881L268.96700000000004,288.2494316817121L270.62899999999996,301.80521790760656L271.46000000000004,306.3088718993576L271.737,310.56198722138924L272.845,289.3610620464156L273.12199999999996,299.00598894159987L274.784,303.35119853601446L278.662,310.15135092333685L280.04699999999997,318.91323242866684L280.601,319.6003329364728L282.817,314.1160013687139L283.371,321.67312792608294L284.202,322.9656111318456L286.141,320.05632107694595L286.418,335.87950893429456L288.911,335.8433816206644L290.84999999999997,331.92282996850105L293.34299999999996,330.22631636901957L298.329,320.6945644522302L298.883,329.35241712806186L299.991,328.12887968759645L301.65299999999996,341.55263720452956L303.869,351.8797935384336L305.808,344.9617527308135L308.301,330.6573264852654L309.409,315.3608071593115L311.625,327.8431975727071L315.503,345.42687084798376L319.658,335.72081807028127L320.766,325.7252381639867L321.043,318.54014048932135L322.151,313.71054906540746L322.98199999999997,328.7684919929311L323.259,324.1814685790162L323.813,328.7850849299868L324.36699999999996,323.6113945463033L326.85999999999996,314.88437650045273L327.69100000000003,321.9821597639651L327.968,335.91983764809703L330.461,328.43876617097385L331.292,344.72222854219245L332.4,341.8360853225395L139.331,319.2674967830497L139.608,306.1465693271231L139.88500000000002,298.4482396167596L140.993,293.833851313417L141.26999999999998,291.098761136297L142.37800000000001,289.7153892598829L142.655,289.40872850098276L143.209,285.54415454398804L145.97899999999998,286.7112435808962L148.195,287.17927166085303L150.688,288.209944567801L151.24200000000002,285.8952065947481L153.181,287.2031767204786L154.566,287.3944194685338L154.843,290.9234024070564L156.78199999999998,292.5400153651864L158.721,291.05867407892083L158.998,297.1885444617022L159.275,304.1524954378865L159.552,289.80329037148203L160.106,287.4474377088305L162.04500000000002,288.34407816041596L164.261,289.4206725279224L166.2,287.73858907014403L167.585,289.64953224390536L168.693,293.4172334733332L168.97,293.58570289045053L170.909,291.29180186889005L172.017,292.8585150975447L179.49599999999998,295.0617833288028L182.82000000000002,293.23424100763805L183.928,292.4974344191869L185.036,290.8589427531202L185.31300000000002,289.5804862495215L187.25199999999998,290.87675139961846L188.63699999999997,290.6740022669663L191.40699999999998,286.8897843285534L195.008,289.9044840889466L196.67,291.80148994845035L197.501,289.5673599277623L202.487,292.17481174377724L203.318,299.7949307481498L204.149,305.78331380829513L206.642,298.1866223524976L208.304,295.5473131249677L210.51999999999998,290.78089054735483L212.18200000000002,289.6885634979203L213.29,292.77474668958973L213.567,294.33582563723513L213.84400000000002,290.1155830405303L215.229,289.58392640543866L217.722,290.5394710000553L219.107,292.96006129882926L220.76899999999998,296.9744631007258L221.6,289.5151828266833L223.539,288.71393245385013L225.201,289.1814898002203L225.478,295.39698843320417L226.58599999999998,290.0538664943775L227.41700000000003,292.436539260722L230.74099999999999,287.7810886700946L231.018,290.9854126452467L231.57199999999997,289.19207151789215L233.511,293.47251944390683L234.89600000000002,296.3093836673029L236.004,297.869762123234L236.835,299.62384396911455L237.38899999999998,294.56104040068857L237.666,293.77037414703875L140.993,293.1272922606043L142.101,291.4475423567457L142.37800000000001,73.46791049472017L146.256,158.75062506072382L147.08700000000002,209.63158105509822L147.641,240.71924907189148L147.918,260.370081115065L148.472,271.3958505948174L152.904,277.62457441354763L154.843,281.79801918577016L160.66,283.7522766821734L162.876,284.7553349534251L163.984,285.42834799017106L164.538,285.7022860806098L165.646,285.7338308688237L166.477,286.95412701755663L167.308,286.661472456246L167.862,286.77638967308883L168.13899999999998,286.7960214088022L168.693,286.90375333452425L169.247,286.94501483814315L169.801,286.76257423712775L170.909,286.14816359857593L172.017,286.4458518002659L172.29399999999998,286.56833635442956L173.40200000000002,286.60930739809794L173.956,286.660722067958L174.787,286.6852231498284L177.55700000000002,286.5954559487722L180.60399999999998,286.43979007995483L181.98899999999998,286.5560853451273L186.14399999999998,286.40032592077364L186.97500000000002,286.3016446734029L190.576,286.75155167588196L192.51500000000001,286.94527923183057L193.346,287.35226774648305L194.731,286.5815077253497L195.008,287.18969315952825L196.393,287.274578655667L203.04100000000003,286.20709008680694L206.36499999999998,286.11696737606474L208.85799999999998,286.3232492827201L210.797,286.6964827243805L213.01299999999998,286.9102246325616L213.29,287.0564568178075L213.567,286.4961896231565L215.229,286.4745109791968L217.99900000000002,286.87553575801337L218.553,286.81235116419555L219.661,286.68067677194546L221.6,287.05691477646855L224.093,287.5102073910076L224.37,287.11318607291514L224.64700000000002,286.87866970135826L226.032,286.8911632568557L227.14000000000001,286.5516250247497L230.74099999999999,286.58830135487324L231.29500000000002,285.95433574366L231.57199999999997,286.54044900980176L231.849,286.97043485337696L232.126,287.59415184513006L233.23399999999998,286.98983203960006L239.05100000000002,287.8578507490384L240.436,287.13933839359817L240.71300000000002,286.1607098729696L240.98999999999998,285.42544496244034L241.267,284.89513190303876L243.76,285.57189692861743L244.037,286.03852881497164L246.25300000000001,286.19608606001225L249.854,286.6457626921527L250.962,286.41344971420796L251.79299999999998,286.3936674947474L252.347,286.4068039995765L252.901,286.5040160355246L253.45499999999998,286.5686029671558L254.00900000000001,286.51187529550066L255.394,287.0487264504385L258.718,288.55784979067977L260.38,285.6732728751912L261.765,284.9112746145898L263.427,285.4654533825821L263.704,286.05710603920784L264.258,286.8537317293885L264.812,286.6820834542552L265.089,286.85860319489177L265.92,287.15180028373857L269.24399999999997,286.3137775219298L270.35200000000003,287.003037086163L271.46000000000004,287.49730898063797L272.568,287.1233020520556L273.12199999999996,287.6958722986898L273.399,287.5680439773572L275.338,287.3282424830048L277.277,287.04449172043195L277.554,287.00199875489784L280.878,287.1797840345072L286.418,286.76863746427244L286.972,286.2557743288852L287.249,285.42988666971934L287.526,285.77416733737533L288.08,284.6406077222422L288.911,285.90347935574994L291.404,286.27479450417087L292.512,286.24546799480925L293.06600000000003,286.4451137317234L293.62,286.6060458410651L294.451,286.72614777720315L298.606,287.1791161466135L298.883,286.8378196245838L299.991,287.5350780327154L301.93,284.0859663763997L308.578,284.2246478611407L313.01,284.07349716770216L319.104,285.4389539278526L321.32,284.87191672947876L322.428,286.825454600241L322.98199999999997,287.2488103872679L323.259,287.1366913277033L324.36699999999996,287.2429865802823L324.921,288.0885014072544L327.137,287.72002295960783L328.522,287.5827984038579L329.907,287.0899851082914L331.015,286.84194353566113L335.17,286.42925366089815L335.447,286.40246778539097L336.832,286.7241895772444L337.94,286.63976017875154L339.602,286.5846140305075L340.156,286.6121872225515L340.987,286.6503045849345L341.818,286.9717708732093L343.48,286.4234635705556L345.41900000000004,286.79559971968416L346.527,287.55408111886356L347.635,286.4918008375238L348.74300000000005,286.01155249140834L349.02,286.14525733619735L349.851,286.941144423532L353.175,286.9948205963545L353.452,287.36500663842025L357.05299999999994,287.0931402298861L357.33,286.9320776181253L358.161,286.97175651395435L358.71500000000003,286.8190378274455L358.99199999999996,286.73581156894545L359.546,286.6241038068159L360.1,286.6048575692229L362.03900000000004,286.30944462677695L363.701,286.99485971637955L363.97799999999995,287.1252029059396L369.518,286.7214991548622L370.072,286.73717915903194L370.62600000000003,286.7354208949024L371.457,286.68406823096814L371.73400000000004,286.7042364154347L373.95000000000005,286.8571532993965L376.166,286.71515991537365L376.997,286.74823830126877L381.429,286.5902721627938L386.138,286.7378499712243L387.8,286.5869324929682L388.354,286.09922595512L388.908,286.4460275648378L390.016,286.65484561427866L390.293,285.6224531235996L391.401,286.15338511967377L393.894,285.8068858772551L394.72499999999997,285.43273547334803L396.664,285.7907283042346L399.15700000000004,286.20730889198035L399.43399999999997,286.3817116752116L400.265,286.4089045598454L402.758,286.6167740192806L404.14300000000003,286.6734529766021L406.08200000000005,286.67859307647217L406.636,286.84255938586875L407.46700000000004,287.20511213763297L409.683,285.3749485109671L411.068,286.18389465812885L413.561,286.2446141769978L414.115,286.52044404414625L414.669,286.7761081923274L414.94599999999997,286.90958342126623L415.5,286.8300074476733L417.16200000000003,286.61915736196465L417.71599999999995,286.5136816965485L418.27,286.52788908759544L418.547,286.6586923927727L419.101,286.82245604969785L420.76300000000003,287.0600010436749L421.03999999999996,287.3927616189667L424.918,287.21259987995757L428.796,286.92937397103077L429.904,286.81191437821803L430.735,286.7667854977211" style="fill: none;" fill="none"></path></g></g></g></g><g opacity="0.2"><g><g><g><path stroke="rgb(255, 112, 67)" stroke-width="2px" d="M138.5,280.62148027075455L166.2,-32210.467350304127L1305.778,-29055.538274914026L138.5,371.9777131495066L639.039,-29090.907727003098L805.239,-32141.435839802027L138.5,286.92244501272216L139.331,284.8255521543324L139.88500000000002,288.9318779502064L144.59400000000002,281.82740956381895L147.641,286.5018948081415L152.35,298.04135127179325L153.735,289.0645254969131L154.289,283.2903830143623L154.566,289.3498428615276L155.12,287.04780423268676L157.89000000000001,284.34504514862783L158.444,288.4776089207735L162.322,287.5661830343306L163.153,290.9935668152757L163.984,286.3607487974223L164.261,290.51768033369444L165.923,286.52067943895236L167.031,286.4432856598869L167.585,287.60306471795775L167.862,290.4794234940782L170.355,282.25852096639574L171.186,274.39526900835335L172.84799999999998,286.7512655952014L173.125,286.7661997892428L173.40200000000002,288.2667149982881L173.679,288.9215642802883L174.233,298.4770281922538L175.34099999999998,269.77317720721476L176.449,281.29995473264717L176.726,285.6175594946835L177.55700000000002,289.18776697665453L177.83399999999997,271.362610002514L178.111,288.571119528031L181.435,283.84633107762784L182.543,287.55325656803325L182.82000000000002,289.3711577793583L184.759,286.71303625870496L185.31300000000002,286.6963693681173L189.191,289.48661587620154L190.853,275.8638255922124L191.684,277.8945459444076L192.79199999999997,295.1613620838616L194.177,286.37978095631115L195.008,285.1430756722111L197.501,291.8876382331364L206.642,287.7812849341426L208.027,286.0790068383794L211.628,286.74969791737385L213.29,290.5047538673971L213.567,283.8846429234836L213.84400000000002,294.248010979034L214.675,276.4884214424528L216.33700000000002,281.10611274442635L216.614,283.887365732342L218.553,280.1751871460583L219.938,285.3499541392084L220.76899999999998,289.11323352204636L223.816,282.57411926588975L224.093,278.38913454744034L224.37,289.4798226056155L224.64700000000002,285.80375561560504L227.41700000000003,270.24394810851663L229.633,287.7351071960293L230.18699999999998,288.2503781451378L231.018,288.63366162241437L231.29500000000002,283.9818664519116L232.126,286.5937827313319L233.788,287.402291943552L234.34199999999998,286.12760485103354L235.45000000000002,285.75944808963686L238.21999999999997,286.7373215134721L239.05100000000002,286.7439497653395L239.605,285.3325171612669L240.71300000000002,286.9052280597389L241.544,286.86160811176524L245.422,282.059755919734L247.915,286.6219184228685L249.577,278.6255238619633L251.239,282.6370464039501L251.79299999999998,286.0718285241164L253.45499999999998,288.5987876665313L254.00900000000001,291.3573505806271L254.28600000000003,290.92406643158756L255.117,283.99336275598034L255.394,285.79011406819336L256.502,286.80013863905333L257.056,286.87087666313164L257.33299999999997,287.16073204251006L259.54900000000004,286.69823958026245L262.319,280.4534087057691L262.873,285.51458781422116L264.258,276.1948256387841L265.366,283.33832095214166L267.305,286.7337736110203L269.24399999999997,284.20816212147474L277,286.4866855829023L277.831,286.78514943877235L279.493,286.46671831794083L280.878,286.65244688582607L281.432,284.8040172115434L281.986,286.3034047926776L282.53999999999996,287.3114216357935L283.925,285.79058162122965L284.202,287.7870055830572L285.31,286.7352312763687L286.695,289.333918555174L290.019,269.49033512338065L290.296,286.091025701724L291.127,286.63853030721657L292.512,286.7075906409882L292.789,289.3776485156268L295.559,278.71669670403935L296.944,286.0953161884099L297.221,287.53711223672144L298.329,283.9908874752L298.883,283.7835689582862L300.268,286.69227140326984L300.545,287.04450385831296L300.822,286.73880668194033L301.65299999999996,285.75350741576403L304.423,286.1544203928206L306.639,285.91816859389655L306.916,286.664795786608L308.301,285.5322173140012L309.686,288.2451250492595L311.348,285.5767448649276L311.625,287.4732774957083L312.733,284.7654303344898L314.118,286.68297534878366L316.05699999999996,288.0126686808653L316.334,287.98494553612545L316.888,281.32000450696796L317.442,287.0162031480577L321.043,287.46785938111134L321.32,287.5531740586739L321.87399999999997,286.5074779414572L324.36699999999996,271.66673950105906L329.076,265.11428623180836L329.353,279.0225588991307L330.184,274.5262663678732L330.738,290.6305256341584L331.846,288.1085720595438L332.4,288.178567499388L341.264,288.52496929303743L342.09499999999997,278.96546242246404L343.48,282.57695208722726L345.973,280.35563511494547L347.08099999999996,287.2034168844111L350.12800000000004,285.10011579911225L350.68199999999996,289.81508563575335L351.51300000000003,282.0634963440243L355.391,285.36233054311015L357.33,286.7631194398273L357.60699999999997,286.67717219050974L358.71500000000003,286.50662534474395L359.823,278.7115261175204L360.377,291.466675481759L361.20799999999997,293.6114237685688L363.147,293.88582239462994L363.42400000000004,289.01199453813024L363.701,289.2744293070864L363.97799999999995,289.3730004883837L364.532,296.3287320029922L366.194,289.454822269734L366.471,272.4386695639696L368.133,285.75226977537386L369.241,286.5595413472038L372.011,289.80683469981886L372.565,286.0393748427741L372.842,280.1748846117407L373.396,286.7499454454519L384.753,283.692286103731L385.307,290.4297803628724L388.908,285.356554887956L390.293,286.90811588731594L390.56999999999994,286.86669618892483L391.12399999999997,286.54683490586467L391.401,286.80143128568307L391.678,286.91185631160624L392.786,283.6000681431033L393.894,284.04677381459624L395.002,288.06662980187684L395.279,290.6376764453016L396.94100000000003,283.74982263031416L399.43399999999997,288.1939692464657L402.204,294.3306028477382L403.86600000000004,291.76610194682144L404.14300000000003,277.2907699558418L406.636,285.17024875455536L408.02099999999996,287.317279800307L409.683,271.4835962264333L411.068,288.2591791434679L413.007,284.74994607805274L414.669,286.8095997122582L415.223,286.2081339857541L415.77700000000004,285.9176460346207L416.885,286.44963888055645L417.439,296.06434451253153L417.71599999999995,277.89875392173417L418.824,284.9690359302331L419.101,287.672675114125L419.655,286.89362174319103L419.932,287.8826889367774L420.76300000000003,287.9745768599678L421.03999999999996,282.2165787087288L422.148,288.2750484435819L422.979,289.02123558637686L423.81,288.20739076891914L424.918,275.9550809436478L425.749,286.4369599423371L426.02599999999995,279.86068897135556L427.965,284.5087162144482L432.12,288.8807221474126L433.505,283.7411041413434L434.059,285.20748797873966L435.167,289.65845536859706L435.444,286.67373430053703L436.275,292.3257629312575L439.045,293.7282570214011L439.322,283.360570976045L440.153,284.5409223677125L440.43,284.1221873690374L441.53799999999995,284.37301582144573L443.2,285.70050890394486L443.754,281.4727018279955L446.24699999999996,281.31763923866674L452.618,290.2279624699149L459.82000000000005,286.3305228687823L462.59000000000003,282.494497734122L462.867,283.4331242060289L463.14399999999995,287.4884042115882L463.975,287.69968317775056L464.52899999999994,286.99216542136855L465.36,282.13508696481586L465.637,287.41516340360977L466.19100000000003,286.49840191192925L472.008,291.9423969446216L475.332,292.7314339480363L476.43999999999994,283.98076632712036L477.825,288.3038167068735L478.656,291.0598218308296L480.872,300.3361840832513L481.149,297.4237962202169L481.42600000000004,271.63280065124854L483.088,283.9626417711843L484.196,286.2847301743459L484.74999999999994,295.2658189327922L488.905,279.9315645110328L490.013,295.57910697022453L491.67499999999995,296.52502176887356L492.50600000000003,284.51402431656606L494.72200000000004,277.0040224289987L495.27599999999995,278.6094070337713L495.553,279.88164634862915L495.83,284.20112132281065L498.32300000000004,268.0575325952377L498.877,286.62288103206083L499.154,282.0965550940018L499.431,290.8062980726827L500.539,289.5921453468036L501.924,288.5411686305888L503.863,296.01030088216066L507.741,289.37503571924753L508.295,287.7519391053356L508.57200000000006,290.2980129159987L510.234,282.08723153639585L510.788,277.5329624286387L513.835,290.3264511418529L514.943,289.57756869331934L515.22,284.33979205274954L519.375,290.4348409369122L519.929,285.04609967186116L520.206,288.7048121932894L520.76,280.1595103677828L521.0369999999999,291.05734655004926L521.868,292.1713879199233L522.422,277.58618096541613L523.253,290.2519451903645L523.53,288.78344361274503L526.023,268.95556446234696L526.577,285.66420478583314L527.6850000000001,284.898517931113L527.962,277.167831010418L529.07,288.0024925265461L530.178,288.5949097266421L530.455,286.5872919950634L531.84,292.48258572025225L534.333,285.5508644292131L535.718,297.7694554296322L539.3190000000001,293.4424996068701L540.427,298.0439365650527L542.366,322.64206682285294L547.9060000000001,279.7396202380769L553.169,288.7193063374143L554,285.9739999270532L555.385,288.38060541730374L556.216,300.9146021953784L558.1550000000001,287.91671029594727L560.9250000000001,290.0085425802972L561.202,281.65092204418033L562.864,288.4545338032767L563.1410000000001,302.6822277037427L563.972,289.5906601783354L565.0799999999999,296.952145219082L565.357,277.2940703302156L565.9110000000001,283.17198208370246L566.742,273.7243304012809L567.296,293.6731407693587L567.85,247.24691196880303L569.789,262.0910332929343L570.897,283.6976767152082L573.113,277.82116762083024L573.944,300.57903663092293L574.498,286.9708780066576L574.775,306.0940447188914L575.606,279.0363929683808L576.16,274.191800928209L576.437,277.26516455132514L576.7139999999999,293.75086458586156L580.3149999999999,294.28027213853784L583.085,282.09278716659173L583.9159999999999,283.6091166695114L584.47,290.1153371944092L588.0709999999999,313.8599081297871L588.3480000000001,326.77245784853585L589.7330000000001,318.63337710220367L590.841,300.83165278611705L591.118,301.1925212207716L594.165,277.5848608156666L594.719,268.3450227063149L595.273,293.0025872059632L596.381,314.3080439635087L597.766,279.6740803036373L598.043,302.11882629501633L598.597,297.77088559186086L599.151,295.2940646368079L599.982,280.65528160496615L603.3059999999999,312.93431813665666L604.691,279.2566104484722L605.5219999999999,303.9572173305787L606.9069999999999,279.32597331656143L608.015,295.5638977449853L609.677,280.43451406247914L611.616,292.89972553798L613.001,266.3997270441614L614.94,286.7109185184818L615.494,272.0737031644676L617.433,300.7998591796495L619.926,304.8146270897705L621.588,299.87399415532127L622.1419999999999,273.1445096300449L623.5269999999999,294.7473026155494L623.8040000000001,292.7499710507691L628.236,295.52148793428205L629.898,292.80450973729603L632.391,338.39436866529286L636.546,287.92347606341355L636.823,284.94362304755487L639.039,287.6699798083864L639.593,297.7322437085677L640.424,270.1473571518436L640.701,289.31727916770615L641.255,295.4490447167773L642.64,293.9103001712356L646.518,295.2053395723924L647.3489999999999,285.52668918692507L648.1800000000001,279.1868900398258L649.288,285.7720720216166L650.3960000000001,296.07212789542973L651.227,305.3326208477374L651.7810000000001,298.3333793976344L654.551,312.1502867010422L655.659,246.3768232713919L656.213,284.80077184340917L657.598,292.3623970868066L661.753,317.8919755022507L662.861,289.2033337424509L664.523,300.681540758349L665.354,299.77635808009654L666.185,311.57596655376256L667.016,311.07755501708016L669.509,315.07469342742115L671.448,249.17870359914377L672.0020000000001,298.87673103203997L673.664,296.5655338643119L673.9409999999999,287.09073660266586L674.218,253.6143517512828L675.326,277.9426764040254L675.88,266.8033078238368L678.096,299.2540463323239L678.373,301.54423111653887L678.927,283.48615022096783L679.204,304.1097771360073L679.481,283.57526032906026L679.758,294.6298642940819L682.528,302.69421906396747L684.467,307.91557634202763L685.021,217.4823756662663L685.852,304.31046740105376L686.96,284.53575178119354L688.068,310.3095303971786L689.1759999999999,301.42068710247986L694.1619999999999,292.1235324915033L696.655,303.27238964801654L699.702,273.28342788806185L699.9789999999999,324.59979389514774L700.8100000000001,297.59486562525854L701.087,320.6175071694888L701.918,275.1297948283609L702.7489999999999,344.9994354026858L703.0260000000001,339.9397689658217L704.965,311.21358544752L706.0730000000001,271.7084067275282L706.627,333.56721360306256L710.505,255.4962527223397L710.782,344.54684406355955L711.89,287.5890931331087L712.7209999999999,276.2082746643573L715.2139999999999,285.01499364338815L715.768,245.13120697648264L718.815,294.34710471960716L720.754,296.9763754676096L724.0780000000001,272.7831186361145L724.909,318.34398927586153L725.4630000000001,321.62247116630897L735.989,258.39774934994057L740.144,289.4717366883997L740.975,295.5679407035932L741.2520000000001,283.9666297235526L743.4680000000001,314.1295212130062L744.5759999999999,264.354925094638L745.9609999999999,302.66195790446363L747.6229999999999,275.09068539203145L747.9000000000001,263.7284865353722L751.224,292.2561525350902L754.825,288.6956811575219L755.102,291.02175751305185L755.656,288.36880657891743L757.0409999999999,329.2007082940545L757.318,298.34306049579754L757.8720000000001,249.2298318988178L760.642,285.5868110067677L760.919,276.64186134771444L765.9050000000001,272.70093931420706L766.182,282.53330463613383L767.567,311.2137504662387L770.0600000000001,287.172833415214L770.891,320.0443696563598L773.661,314.70370384468697L774.215,310.08062193123624L774.769,195.0990441413596L775.323,301.0222769093234L776.4309999999999,301.21787909721024L776.9850000000001,326.00600090646185L777.2620000000001,320.22302992246114L778.3700000000001,301.44447730109096L778.647,306.7879209278617L779.201,295.6748728333041L780.032,314.4667094615288L782.802,295.6088103395887L784.741,272.8638127895538L786.126,300.8592109121382L788.0649999999999,300.12545517948456L788.619,336.63350892439485L789.173,306.0269921128638L789.7270000000001,295.6464896136895L790.004,263.0957497616764L791.389,333.6658672937192L793.328,292.38442708575167L795.544,298.6153413816355L796.652,282.4639692711644L798.8679999999999,337.98569980845787L803.854,278.25626697577536L805.516,285.23276334581897L809.1170000000001,292.40241412608884L809.671,296.8247507682536L810.2249999999999,288.40750346845016L811.8870000000001,289.65521000046283L814.38,273.20089102559723L816.0419999999999,274.9491268345155L816.3190000000001,297.43149709375575L816.8729999999999,282.0602509758901L819.92,285.9073323647026L822.413,288.2015876106452L822.967,291.27662892406806L823.5210000000001,291.97969117504545L824.9060000000001,291.95243558334187L825.183,316.44965689466335L826.291,289.92578569287434L827.122,285.41585161420517L827.676,299.71772142872214L829.338,302.23519199481234L829.8919999999999,285.39357408718206L830.1690000000001,293.5304545839317L831.5540000000001,304.68371223961003L833.493,302.88209287519567L835.7090000000001,274.3070665032137L840.6949999999999,310.50271231052466L841.249,240.25616898271255L842.9110000000001,302.07124589779414L843.742,262.9719307164196L844.296,261.292122669518L845.127,306.74221074278466L845.681,280.75982096325606L845.958,260.4363355943933L847.066,295.2522048885003L848.451,289.1248123354744L849.2819999999999,279.88687194138765L850.39,262.47360168909654L851.221,288.0539783667773L852.0519999999999,288.3757098619826L852.883,280.2089609771501L853.9910000000001,282.1933935787529L855.3760000000001,286.5436170408502L856.7610000000001,294.20307088131085L857.592,278.48063742695376L858.7,298.60901566408575L860.6389999999999,288.2667149982881L860.916,297.53548638965003L861.193,298.76548091252334L862.301,289.95150110987015L863.409,292.3086834938731L863.686,298.5416330206208L863.9630000000001,304.5029067301657L864.794,309.28899963456206L865.071,319.56485276296735L866.7330000000001,242.44770007627085L867.841,297.3355112057179L868.118,296.9350932848174L868.672,299.6900807933416L870.6110000000001,303.5181025201455L870.888,284.475244917674L872.273,304.1603828764055L872.55,292.6093200962059L872.827,284.22848692699336L873.3810000000001,305.2068490809761L874.7660000000001,297.8640111554414L876.428,299.11980360466987L880.5830000000001,298.0614560523536L892.217,308.21203247015364L893.325,300.04291831701994L894.156,310.99556821701117L894.71,280.4045356619172L895.8180000000001,317.92291651200503L896.9259999999999,150.9140720749274L897.48,314.87353560933843L902.189,284.4879238558933L902.743,285.34390345285647L903.02,299.7972329480108L905.513,327.32923100539483L906.067,302.2506762512494L911.33,274.71328758238815L913.5459999999999,281.0656556552276L916.87,280.0354712975677L917.424,315.31355802272446L139.331,286.3605562755838L139.608,286.62612640019506L139.88500000000002,288.4314861888997L140.439,287.44225397659466L143.486,283.94517729012296L144.317,286.9674401166849L138.777,285.36923382617533L139.608,285.92925235116854L141.824,281.6671213817317L142.37800000000001,290.28758923360147L142.932,289.42154349479824L143.763,284.18244670447893L144.04,283.294701004168L146.53300000000002,286.87263686279766L147.641,289.7070258781314L150.688,286.8420808967203L151.796,287.55875719198957L152.35,284.0413281968795L156.78199999999998,286.64020799752325L160.383,282.9168631446082L162.59900000000002,277.71376793808304L163.153,295.26645150454715L165.092,282.18324492755346L165.369,289.78637237870134L167.031,284.39724606997333L169.247,289.92427302128635L172.017,290.86366958054714L172.29399999999998,289.46134050912224L178.388,292.71996514708735L178.942,296.0798287689686L180.60399999999998,286.09451859793626L181.435,286.7406218878459L181.98899999999998,288.8084989548661L185.036,288.75588548672386L188.914,294.08444992569275L190.853,299.58309365739115L191.40699999999998,284.3350615161471L193.346,296.75915582757443L195.008,270.42414854932576L195.28499999999997,293.21686401218176L196.393,296.97588041145355L196.67,281.0740166036412L197.77800000000002,287.2284722265322L198.05499999999998,291.9911049697548L199.163,286.6736517911777L200.54800000000003,285.9629986791406L201.102,277.56943156546913L203.04100000000003,301.2306405447889L203.318,278.4038487165235L203.595,304.2779312103521L205.811,293.38037005928345L206.642,291.77817581640556L207.75,303.9452534734737L208.304,312.02173711918294L209.68900000000002,298.88212164351717L213.567,295.557764549274L215.783,281.9968012785539L216.891,295.7037511090748L218.83,288.20543804741465L219.38400000000001,289.87614256166853L220.215,296.2249352289364L220.49200000000002,292.5106113993097L220.76899999999998,287.94517602492124L222.43099999999998,287.3108715733979L222.708,287.07935031107627L225.478,285.1621078311L227.41700000000003,301.7835357617587L228.80200000000002,290.47040247078985L229.07899999999998,280.47117572114803L230.464,293.20162728382275L232.40300000000002,301.2062452775426L233.511,291.25481895008124L234.619,288.0707277667243L234.89600000000002,299.5668943198398L239.328,303.9102420019917L239.88199999999998,321.4473863057792L242.098,320.01661900850013L242.929,295.51593230408616L245.699,294.11704112263396L245.976,292.27229686640203L247.63799999999998,297.00503371842206L248.746,286.23261176235974L251.239,312.97439018217847L251.51600000000002,314.914267729735L252.901,293.2570735733025L254.00900000000001,315.56400143145584L254.28600000000003,307.7829838015605L254.563,312.9333830305841L256.225,304.3929767603986L257.887,297.05888482695445L259.272,308.99345110938884L259.82599999999996,313.71634184452705L263.981,335.3257630818989L268.413,284.1749933590181L268.69,305.7442875446286L268.96700000000004,262.38011858495884L270.62899999999996,322.1388972464483L271.46000000000004,313.0643528869841L271.737,316.94166020443663L272.845,257.55967428395525L273.12199999999996,313.4733792843763L274.784,309.8690129276365L278.662,320.3515795043204L280.04699999999997,332.0560546866618L280.601,320.6309836981818L282.817,305.8895040170755L283.371,333.00881776213646L284.202,324.90433594048955L286.141,315.6923859945964L286.418,359.6142907203175L288.911,335.7891906502191L290.84999999999997,326.042002490256L293.34299999999996,327.6815459697973L298.329,306.3969365770463L298.883,342.3391961418092L299.991,326.2935735268984L301.65299999999996,361.6882734799292L303.869,367.37052803928964L305.808,334.58469151938334L308.301,309.2006871169433L309.409,292.41602817038074L311.625,346.56678319280036L315.503,371.8023807608988L319.658,321.1617389037274L320.766,310.73186830454506L321.043,307.7624939773232L322.151,306.4661619295366L322.98199999999997,351.3554063842166L323.259,317.30093345814385L323.813,335.69050945644267L324.36699999999996,315.85085897077806L326.85999999999996,301.7938494316768L327.69100000000003,332.6288346592337L327.968,356.82635447429493L330.461,317.21715895528905L331.292,369.14742209902033L332.4,337.50687049306L139.331,285.414613973815L139.608,286.46517814323306L139.88500000000002,286.90074505121447L140.993,286.91226885840297L141.26999999999998,286.9961258706171L142.37800000000001,287.64033144526184L142.655,288.9487373626325L143.209,279.74729360849597L145.97899999999998,288.4618771362584L148.195,287.88131378078833L150.688,289.7559539282229L151.24200000000002,282.4230996351689L153.181,289.16513190907426L154.566,287.68128359061666L154.843,296.21687681484036L156.78199999999998,294.9649348023813L158.721,288.83666214952245L158.998,306.3833500358742L159.275,314.59842190216295L159.552,268.27948277187534L160.106,283.9136587148532L162.04500000000002,289.6890388377942L164.261,291.0355640791822L166.2,285.21546388347633L167.585,292.51594700454734L168.693,299.068785317475L168.97,293.83840701612644L170.909,287.85095033654943L172.017,295.20858494052663L179.49599999999998,298.36668567568995L182.82000000000002,290.492927525891L183.928,291.3922245365102L185.036,288.40120525402017L185.31300000000002,287.6628014941234L187.25199999999998,292.8211491247639L188.63699999999997,290.36987856798805L191.40699999999998,281.213457420934L195.008,294.42653372953646L196.67,294.64699873770587L197.501,286.21616489673033L202.487,296.08598946779966L203.318,311.2251092547085L204.149,314.7658883985132L206.642,286.79158516880125L208.304,291.58834928367287L210.51999999999998,283.6312566809356L212.18200000000002,288.0500729237683L213.29,297.4040214770939L213.567,296.67744405870326L213.84400000000002,283.7852191454731L215.229,288.7864414528012L217.722,291.97278789198026L219.107,296.5909467469901L220.76899999999998,302.9960658035707L221.6,278.32626241561957L223.539,287.5120568946004L225.201,289.88282581977546L225.478,304.72023638268L226.58599999999998,282.03918358613737L227.41700000000003,296.0105484102387L230.74099999999999,280.7979127841536L231.018,295.7918986079749L231.57199999999997,286.5020598268602L233.511,299.89319133292884L234.89600000000002,300.5646800023969L236.004,300.2103298071306L236.835,302.2549667379353L237.38899999999998,286.9668350480497L237.666,292.584374766564L140.993,292.1626694309525L142.101,288.92791750095785L142.37800000000001,-253.5015372983181L146.256,286.6746969097294L147.08700000000002,285.95301504665986L147.641,287.35075109708123L147.918,289.84632917982526L148.472,287.934504814446L152.904,286.96766014164314L154.843,288.0581863441039L160.66,286.6836629267782L162.876,286.2599223603029L163.984,286.4378675452899L164.538,286.113193216268L165.646,285.78114805114456L166.477,288.7845712406561L167.308,286.2224906142801L167.862,286.94876549835317L168.13899999999998,286.8254690123722L168.693,287.0653512231074L169.247,287.0069070935715L169.801,286.4889133356046L170.909,285.2265476407483L172.017,286.89238410280086L172.29399999999998,286.75206318567507L173.40200000000002,286.6707639636006L173.956,286.737844072748L174.787,286.721974772634L177.55700000000002,286.4608051471878L180.60399999999998,286.20629127672873L181.98899999999998,286.73052824288607L186.14399999999998,286.1666867842432L186.97500000000002,286.15362280234694L190.576,287.42641217960045L192.51500000000001,287.23587056575343L193.346,287.9627505184617L194.731,285.4253676936496L195.008,288.1019713107962L196.393,287.40190689987503L203.04100000000003,284.6058572335169L206.36499999999998,285.9817833099514L208.85799999999998,286.6326721427031L210.797,287.25633288687095L213.01299999999998,287.2308374948334L213.29,287.27580509567633L213.567,285.65578883117996L215.229,286.44199301325716L217.99900000000002,287.4770729262382L218.553,286.7175742734689L219.661,286.48316518357024L221.6,287.6212717832532L224.093,288.19014631281607L224.37,286.5176540957764L224.64700000000002,286.526895144023L226.032,286.90990359010175L227.14000000000001,286.04231767659076L230.74099999999999,286.64331585005857L231.29500000000002,285.0033873268403L231.57199999999997,287.4196189090144L231.849,287.6154136187397L232.126,288.52972733275965L233.23399999999998,286.0833523313049L239.05100000000002,289.159878813196L240.436,286.0615698604379L240.71300000000002,284.69276709202677L240.98999999999998,284.3225475966465L241.267,284.0996623139363L243.76,286.5870444669854L244.037,286.73847664450295L246.25300000000001,286.43242192757316L249.854,287.3202776403632L250.962,286.0649802472908L251.79299999999998,286.3639941655565L252.347,286.4265087568201L252.901,286.6498340894468L253.45499999999998,286.66548336460255L254.00900000000001,286.42678378801793L255.394,287.8540031828452L258.718,290.8215348010417L260.38,281.3464075019583L261.765,283.7682772236876L263.427,286.2967215345707L263.704,286.94458502414636L264.258,288.04867026465945L264.812,286.4246110415552L265.089,287.12338280584663L265.92,287.5915959170088L269.24399999999997,285.05674337921664L270.35200000000003,288.0369264325127L271.46000000000004,288.2387168223504L272.568,286.56229165918194L273.12199999999996,288.55472766864114L273.399,287.37630149535835L275.338,286.96854024147615L277.277,286.6188655765727L277.554,286.9382593065966L280.878,287.44646195392124L286.418,286.1519176089205L286.972,285.48647962580435L287.249,284.1910551809706L287.526,286.2905883388594L288.08,282.94026829954237L288.911,287.7977868060116L291.404,286.8317672268022L292.512,286.20147823076695L293.06600000000003,286.74458233709447L293.62,286.8474440050777L294.451,286.90630068141036L298.606,287.85856870072894L298.883,286.3258748415392L299.991,288.5809656449128L301.93,278.9122988919262L308.578,284.43267008825205L313.01,283.84677112754434L319.104,287.48713906807825L321.32,284.021360931918L322.428,289.7557614063844L322.98199999999997,287.88384406780824L323.259,286.96851273835637L324.36699999999996,287.4024294591509L324.921,289.35677364771254L327.137,287.16730528813787L328.522,287.3769615702331L329.907,286.35076516494155L331.015,286.4698811767157L335.17,285.8102188487537L335.447,286.36228897213005L336.832,287.2067722650245L337.94,286.5131160810124L339.602,286.5018948081415L340.156,286.65354701061733L340.987,286.7074806285091L341.818,287.4539703056216L343.48,285.601002616575L345.41900000000004,287.353803943377L346.527,288.6918032176327L347.635,284.8983804155141L348.74300000000005,285.2911799722351L349.02,286.34581460338086L349.851,288.13497505453415L353.175,287.07533485558815L353.452,287.9202857015189L357.05299999999994,286.6853406170849L357.33,286.69048370048404L358.161,287.031274857698L358.71500000000003,286.58995979768224L358.99199999999996,286.6109721811954L359.546,286.45654216362163L360.1,286.5759882128332L362.03900000000004,285.8663252131082L363.701,288.0229823507834L363.97799999999995,287.3207176902797L369.518,286.11594352824613L370.072,286.7606991652865L370.62600000000003,286.73278349870816L371.457,286.6070392350666L371.73400000000004,286.7344886921346L373.95000000000005,287.08652862533927L376.166,286.50216983933933L376.997,286.79785588011146L381.429,286.35332295508124L386.138,286.9592166838702L387.8,286.3605562755838L388.354,285.3676661483478L388.908,286.9662299794145L390.016,286.96807268843986L390.293,284.0738643875811L391.401,286.9497831137851L393.894,285.2871370136272L394.72499999999997,284.8715098674875L396.664,286.32771755056456L399.15700000000004,286.8321797735989L399.43399999999997,286.64331585005857L400.265,286.449693886796L402.758,286.92857820843346L404.14300000000003,286.7584714125842L406.08200000000005,286.68630322627723L406.636,287.08850884996355L407.46700000000004,287.7489412652794L409.683,282.6297030709684L411.068,287.3973138788715L413.561,286.3356934553012L414.115,286.9341888448689L414.669,287.159604414599L414.94599999999997,287.1097962646745L415.5,286.71064348728396L417.16200000000003,286.30288223340176L417.71599999999995,286.3554681984242L418.27,286.5492001741659L418.547,286.8548973505385L419.101,287.0681015350856L420.76300000000003,287.4163185346406L421.03999999999996,287.89190248190425L424.918,286.94235727144405L428.796,286.50453510764055L429.904,286.63572498899885L430.735,286.6990921769757" style="fill: none;" fill="none"></path></g></g></g></g></g></g><g transform="translate(70, 378)" clip-path="url(#clip_1)"><clipPath id="clip_1"><rect width="1385" height="22"></rect></clipPath><g><g><line x1="0" y1="0" x2="0" y2="5" style="visibility: inherit;" fill="rgb(0, 0, 0)" stroke="rgb(204, 204, 204)" stroke-width="1px"></line><line x1="138.5" y1="0" x2="138.5" y2="5" style="visibility: inherit;" fill="rgb(0, 0, 0)" stroke="rgb(204, 204, 204)" stroke-width="1px"></line><line x1="277" y1="0" x2="277" y2="5" style="visibility: inherit;" fill="rgb(0, 0, 0)" stroke="rgb(204, 204, 204)" stroke-width="1px"></line><line x1="415.5" y1="0" x2="415.5" y2="5" style="visibility: inherit;" fill="rgb(0, 0, 0)" stroke="rgb(204, 204, 204)" stroke-width="1px"></line><line x1="554" y1="0" x2="554" y2="5" style="visibility: inherit;" fill="rgb(0, 0, 0)" stroke="rgb(204, 204, 204)" stroke-width="1px"></line><line x1="692.5" y1="0" x2="692.5" y2="5" style="visibility: inherit;" fill="rgb(0, 0, 0)" stroke="rgb(204, 204, 204)" stroke-width="1px"></line><line x1="831" y1="0" x2="831" y2="5" style="visibility: inherit;" fill="rgb(0, 0, 0)" stroke="rgb(204, 204, 204)" stroke-width="1px"></line><line x1="969.4999999999999" y1="0" x2="969.4999999999999" y2="5" style="visibility: inherit;" fill="rgb(0, 0, 0)" stroke="rgb(204, 204, 204)" stroke-width="1px"></line><line x1="1108" y1="0" x2="1108" y2="5" style="visibility: inherit;" fill="rgb(0, 0, 0)" stroke="rgb(204, 204, 204)" stroke-width="1px"></line><line x1="1246.5" y1="0" x2="1246.5" y2="5" style="visibility: inherit;" fill="rgb(0, 0, 0)" stroke="rgb(204, 204, 204)" stroke-width="1px"></line><line x1="1385" y1="0" x2="1385" y2="5" style="visibility: inherit;" fill="rgb(0, 0, 0)" stroke="rgb(204, 204, 204)" stroke-width="1px"></line></g><g transform="translate(0, 8)"><text x="0" y="0" dx="0em" dy="0.95em" style="text-anchor: middle; visibility: hidden; font-family: &quot;Helvetica Neue&quot;, sans-serif; font-size: 12px; font-weight: 200;" fill="rgb(50, 49, 63)" stroke="none" stroke-width="1px">-500</text><text x="138.5" y="0" dx="0em" dy="0.95em" style="text-anchor: middle; visibility: inherit; font-family: &quot;Helvetica Neue&quot;, sans-serif; font-size: 12px; font-weight: 200;" fill="rgb(50, 49, 63)" stroke="none" stroke-width="1px">0</text><text x="277" y="0" dx="0em" dy="0.95em" style="text-anchor: middle; visibility: inherit; font-family: &quot;Helvetica Neue&quot;, sans-serif; font-size: 12px; font-weight: 200;" fill="rgb(50, 49, 63)" stroke="none" stroke-width="1px">500</text><text x="415.5" y="0" dx="0em" dy="0.95em" style="text-anchor: middle; visibility: inherit; font-family: &quot;Helvetica Neue&quot;, sans-serif; font-size: 12px; font-weight: 200;" fill="rgb(50, 49, 63)" stroke="none" stroke-width="1px">1k</text><text x="554" y="0" dx="0em" dy="0.95em" style="text-anchor: middle; visibility: inherit; font-family: &quot;Helvetica Neue&quot;, sans-serif; font-size: 12px; font-weight: 200;" fill="rgb(50, 49, 63)" stroke="none" stroke-width="1px">1.5k</text><text x="692.5" y="0" dx="0em" dy="0.95em" style="text-anchor: middle; visibility: inherit; font-family: &quot;Helvetica Neue&quot;, sans-serif; font-size: 12px; font-weight: 200;" fill="rgb(50, 49, 63)" stroke="none" stroke-width="1px">2k</text><text x="831" y="0" dx="0em" dy="0.95em" style="text-anchor: middle; visibility: inherit; font-family: &quot;Helvetica Neue&quot;, sans-serif; font-size: 12px; font-weight: 200;" fill="rgb(50, 49, 63)" stroke="none" stroke-width="1px">2.5k</text><text x="969.4999999999999" y="0" dx="0em" dy="0.95em" style="text-anchor: middle; visibility: inherit; font-family: &quot;Helvetica Neue&quot;, sans-serif; font-size: 12px; font-weight: 200;" fill="rgb(50, 49, 63)" stroke="none" stroke-width="1px">3k</text><text x="1108" y="0" dx="0em" dy="0.95em" style="text-anchor: middle; visibility: inherit; font-family: &quot;Helvetica Neue&quot;, sans-serif; font-size: 12px; font-weight: 200;" fill="rgb(50, 49, 63)" stroke="none" stroke-width="1px">3.5k</text><text x="1246.5" y="0" dx="0em" dy="0.95em" style="text-anchor: middle; visibility: inherit; font-family: &quot;Helvetica Neue&quot;, sans-serif; font-size: 12px; font-weight: 200;" fill="rgb(50, 49, 63)" stroke="none" stroke-width="1px">4k</text><text x="1385" y="0" dx="0em" dy="0.95em" style="text-anchor: middle; visibility: hidden; font-family: &quot;Helvetica Neue&quot;, sans-serif; font-size: 12px; font-weight: 200;" fill="rgb(50, 49, 63)" stroke="none" stroke-width="1px">4.5k</text></g><line x1="0" y1="0" x2="1385" y2="0" fill="rgb(0, 0, 0)" stroke="rgb(204, 204, 204)" stroke-width="1px"></line></g></g></g></g></svg>