<svg viewBox="0 0 1455 400" xmlns="http://www.w3.org/2000/svg"><g><g><g><g><g><line x1="60" y1="378" x2="55" y2="378" style="visibility: inherit;" fill="rgb(0, 0, 0)" stroke="rgb(204, 204, 204)" stroke-width="1px"></line><line x1="60" y1="340.2" x2="55" y2="340.2" style="visibility: inherit;" fill="rgb(0, 0, 0)" stroke="rgb(204, 204, 204)" stroke-width="1px"></line><line x1="60" y1="302.4" x2="55" y2="302.4" style="visibility: inherit;" fill="rgb(0, 0, 0)" stroke="rgb(204, 204, 204)" stroke-width="1px"></line><line x1="60" y1="264.6" x2="55" y2="264.6" style="visibility: inherit;" fill="rgb(0, 0, 0)" stroke="rgb(204, 204, 204)" stroke-width="1px"></line><line x1="60" y1="226.79999999999998" x2="55" y2="226.79999999999998" style="visibility: inherit;" fill="rgb(0, 0, 0)" stroke="rgb(204, 204, 204)" stroke-width="1px"></line><line x1="60" y1="189" x2="55" y2="189" style="visibility: inherit;" fill="rgb(0, 0, 0)" stroke="rgb(204, 204, 204)" stroke-width="1px"></line><line x1="60" y1="151.20000000000002" x2="55" y2="151.20000000000002" style="visibility: inherit;" fill="rgb(0, 0, 0)" stroke="rgb(204, 204, 204)" stroke-width="1px"></line><line x1="60" y1="113.39999999999998" x2="55" y2="113.39999999999998" style="visibility: inherit;" fill="rgb(0, 0, 0)" stroke="rgb(204, 204, 204)" stroke-width="1px"></line><line x1="60" y1="75.59999999999997" x2="55" y2="75.59999999999997" style="visibility: inherit;" fill="rgb(0, 0, 0)" stroke="rgb(204, 204, 204)" stroke-width="1px"></line><line x1="60" y1="37.80000000000001" x2="55" y2="37.80000000000001" style="visibility: inherit;" fill="rgb(0, 0, 0)" stroke="rgb(204, 204, 204)" stroke-width="1px"></line><line x1="60" y1="0" x2="55" y2="0" style="visibility: inherit;" fill="rgb(0, 0, 0)" stroke="rgb(204, 204, 204)" stroke-width="1px"></line></g><g transform="translate(50, 0)"><text x="0" y="378" dx="0em" dy="0.3em" style="text-anchor: end; visibility: hidden; font-family: &quot;Helvetica Neue&quot;, sans-serif; font-size: 12px; font-weight: 200;" fill="rgb(50, 49, 63)" stroke="none" stroke-width="1px">0.03</text><text x="0" y="340.2" dx="0em" dy="0.3em" style="text-anchor: end; visibility: inherit; font-family: &quot;Helvetica Neue&quot;, sans-serif; font-size: 12px; font-weight: 200;" fill="rgb(50, 49, 63)" stroke="none" stroke-width="1px">0.035</text><text x="0" y="302.4" dx="0em" dy="0.3em" style="text-anchor: end; visibility: inherit; font-family: &quot;Helvetica Neue&quot;, sans-serif; font-size: 12px; font-weight: 200;" fill="rgb(50, 49, 63)" stroke="none" stroke-width="1px">0.04</text><text x="0" y="264.6" dx="0em" dy="0.3em" style="text-anchor: end; visibility: inherit; font-family: &quot;Helvetica Neue&quot;, sans-serif; font-size: 12px; font-weight: 200;" fill="rgb(50, 49, 63)" stroke="none" stroke-width="1px">0.045</text><text x="0" y="226.79999999999998" dx="0em" dy="0.3em" style="text-anchor: end; visibility: inherit; font-family: &quot;Helvetica Neue&quot;, sans-serif; font-size: 12px; font-weight: 200;" fill="rgb(50, 49, 63)" stroke="none" stroke-width="1px">0.05</text><text x="0" y="189" dx="0em" dy="0.3em" style="text-anchor: end; visibility: inherit; font-family: &quot;Helvetica Neue&quot;, sans-serif; font-size: 12px; font-weight: 200;" fill="rgb(50, 49, 63)" stroke="none" stroke-width="1px">0.055</text><text x="0" y="151.20000000000002" dx="0em" dy="0.3em" style="text-anchor: end; visibility: inherit; font-family: &quot;Helvetica Neue&quot;, sans-serif; font-size: 12px; font-weight: 200;" fill="rgb(50, 49, 63)" stroke="none" stroke-width="1px">0.06</text><text x="0" y="113.39999999999998" dx="0em" dy="0.3em" style="text-anchor: end; visibility: inherit; font-family: &quot;Helvetica Neue&quot;, sans-serif; font-size: 12px; font-weight: 200;" fill="rgb(50, 49, 63)" stroke="none" stroke-width="1px">0.065</text><text x="0" y="75.59999999999997" dx="0em" dy="0.3em" style="text-anchor: end; visibility: inherit; font-family: &quot;Helvetica Neue&quot;, sans-serif; font-size: 12px; font-weight: 200;" fill="rgb(50, 49, 63)" stroke="none" stroke-width="1px">0.07</text><text x="0" y="37.80000000000001" dx="0em" dy="0.3em" style="text-anchor: end; visibility: inherit; font-family: &quot;Helvetica Neue&quot;, sans-serif; font-size: 12px; font-weight: 200;" fill="rgb(50, 49, 63)" stroke="none" stroke-width="1px">0.075</text><text x="0" y="0" dx="0em" dy="0.3em" style="text-anchor: end; visibility: hidden; font-family: &quot;Helvetica Neue&quot;, sans-serif; font-size: 12px; font-weight: 200;" fill="rgb(50, 49, 63)" stroke="none" stroke-width="1px">0.08</text></g><line x1="60" y1="0" x2="60" y2="378" fill="rgb(0, 0, 0)" stroke="rgb(204, 204, 204)" stroke-width="1px"></line></g></g><g transform="translate(60, 0)" clip-path="url(#clip_0)"><clipPath id="clip_0"><rect width="1395" height="378"></rect></clipPath><g><g><g><line x1="0" y1="0" x2="0" y2="378" fill="rgb(0, 0, 0)" stroke="rgb(60, 60, 60)" stroke-width="1px" opacity="0.25"></line><line x1="139.5" y1="0" x2="139.5" y2="378" fill="rgb(0, 0, 0)" stroke="rgb(60, 60, 60)" stroke-width="1px" opacity="0.25"></line><line x1="279" y1="0" x2="279" y2="378" fill="rgb(0, 0, 0)" stroke="rgb(60, 60, 60)" stroke-width="1px" opacity="0.25"></line><line x1="418.5" y1="0" x2="418.5" y2="378" fill="rgb(0, 0, 0)" stroke="rgb(60, 60, 60)" stroke-width="1px" opacity="0.25"></line><line x1="558" y1="0" x2="558" y2="378" fill="rgb(0, 0, 0)" stroke="rgb(60, 60, 60)" stroke-width="1px" opacity="0.25"></line><line x1="697.5" y1="0" x2="697.5" y2="378" fill="rgb(0, 0, 0)" stroke="rgb(60, 60, 60)" stroke-width="1px" opacity="0.25"></line><line x1="837" y1="0" x2="837" y2="378" fill="rgb(0, 0, 0)" stroke="rgb(60, 60, 60)" stroke-width="1px" opacity="0.25"></line><line x1="976.4999999999999" y1="0" x2="976.4999999999999" y2="378" fill="rgb(0, 0, 0)" stroke="rgb(60, 60, 60)" stroke-width="1px" opacity="0.25"></line><line x1="1116" y1="0" x2="1116" y2="378" fill="rgb(0, 0, 0)" stroke="rgb(60, 60, 60)" stroke-width="1px" opacity="0.25"></line><line x1="1255.5" y1="0" x2="1255.5" y2="378" fill="rgb(0, 0, 0)" stroke="rgb(60, 60, 60)" stroke-width="1px" opacity="0.25"></line><line x1="1395" y1="0" x2="1395" y2="378" fill="rgb(0, 0, 0)" stroke="rgb(60, 60, 60)" stroke-width="1px" opacity="0.25"></line></g><g><line x1="0" y1="378" x2="1395" y2="378" fill="rgb(0, 0, 0)" stroke="rgb(60, 60, 60)" stroke-width="1px" opacity="0.25"></line><line x1="0" y1="340.2" x2="1395" y2="340.2" fill="rgb(0, 0, 0)" stroke="rgb(60, 60, 60)" stroke-width="1px" opacity="0.25"></line><line x1="0" y1="302.4" x2="1395" y2="302.4" fill="rgb(0, 0, 0)" stroke="rgb(60, 60, 60)" stroke-width="1px" opacity="0.25"></line><line x1="0" y1="264.6" x2="1395" y2="264.6" fill="rgb(0, 0, 0)" stroke="rgb(60, 60, 60)" stroke-width="1px" opacity="0.25"></line><line x1="0" y1="226.79999999999998" x2="1395" y2="226.79999999999998" fill="rgb(0, 0, 0)" stroke="rgb(60, 60, 60)" stroke-width="1px" opacity="0.25"></line><line x1="0" y1="189" x2="1395" y2="189" fill="rgb(0, 0, 0)" stroke="rgb(60, 60, 60)" stroke-width="1px" opacity="0.25"></line><line x1="0" y1="151.20000000000002" x2="1395" y2="151.20000000000002" fill="rgb(0, 0, 0)" stroke="rgb(60, 60, 60)" stroke-width="1px" opacity="0.25"></line><line x1="0" y1="113.39999999999998" x2="1395" y2="113.39999999999998" fill="rgb(0, 0, 0)" stroke="rgb(60, 60, 60)" stroke-width="1px" opacity="0.25"></line><line x1="0" y1="75.59999999999997" x2="1395" y2="75.59999999999997" fill="rgb(0, 0, 0)" stroke="rgb(60, 60, 60)" stroke-width="1px" opacity="0.25"></line><line x1="0" y1="37.80000000000001" x2="1395" y2="37.80000000000001" fill="rgb(0, 0, 0)" stroke="rgb(60, 60, 60)" stroke-width="1px" opacity="0.25"></line><line x1="0" y1="0" x2="1395" y2="0" fill="rgb(0, 0, 0)" stroke="rgb(60, 60, 60)" stroke-width="1px" opacity="0.25"></line></g></g></g><g><g><line x1="0" y1="604.8" x2="1395" y2="604.8" fill="rgb(0, 0, 0)" stroke="rgb(153, 153, 153)" stroke-width="1.5px"></line></g></g><g><g><line x1="139.5" y1="0" x2="139.5" y2="378" fill="rgb(0, 0, 0)" stroke="rgb(153, 153, 153)" stroke-width="1.5px"></line></g></g><g><g><g><g><g><path stroke="rgb(255, 112, 67)" stroke-width="2px" d="M223.20000000000002,403.50154905496066L251.1,361.27444576268874L279,326.1612949552999L306.9,296.59430551650036L334.8,271.4592083169937L362.7,249.9659199670236L390.6,231.40186524469615L418.5,215.38038475480676L446.40000000000003,201.56269597939172L474.3,189.54483818764604L502.2,179.09837760414518L530.1,170.19199007929967L139.5,212.80077286674074L167.4,199.8399788624154L195.3,188.292065960112L223.20000000000002,177.9793795588127L251.1,168.7636208903891L279,160.51391003845697L306.9,153.03919714465192L334.8,146.3522307978455L362.7,140.29352982141776L390.6,134.85212505629093L418.5,129.99786278438705L446.40000000000003,125.5719744136907L474.3,121.48490161775794L502.2,117.86572651173753L530.1,114.59322399352516L532.053,155.34079290849817L559.953,148.74935870633394L587.853,142.78559821665624L615.753,137.36485011875817L643.653,132.50450958928232L671.553,128.25847439016738L699.453,124.22135624027541L727.353,120.70107883479744L755.253,117.4146578022316L783.153,114.65852624271258L811.053,112.37279803960257L838.9530000000001,110.05169647322043L866.853,107.98985068782474L894.7529999999999,106.05554071341567L922.653,104.42715491146947L924.6059999999999,145.23702120687003L952.506,139.9353682591318L980.406,135.31774222502185L1008.306,131.0833073740625L1036.2060000000001,128.03578545688254L1064.106,124.75028667232942L1092.006,122.30426061122674L1119.906,119.42489899187353L1147.806,117.18479611845794L1175.706,114.83303583663377L139.5,157.1875576145416L167.4,152.2928506510787L195.3,147.0262378627815L223.20000000000002,142.7608960140035L251.1,138.70249141189134L279,135.16209920492878L306.9,131.87076500173143L334.8,129.5537404412388L362.7,127.26193848482635L390.6,124.80316948367513L418.5,123.16203398876416L446.40000000000003,121.00135916327724L474.3,119.51170047066552L502.2,117.9852650914504L530.1,116.69959639327868L532.053,156.229515221737L559.953,151.56893754443448L587.853,147.49415793075593L615.753,144.67219725469735L643.653,141.74661525150188L671.553,138.56988189972088L699.453,136.5256922958117L727.353,134.96092764332553L755.253,132.6888884403715L783.153,131.29711454997906L811.053,129.938635613109L838.9530000000001,128.81711856926597L866.853,127.72663982118306L894.7529999999999,127.65171301890896L922.653,126.99101724136446L924.6059999999999,166.03478087294494L952.506,162.8919928547863L980.406,159.11578967513853L1008.306,155.4567798071727L1036.2060000000001,152.80825833364776L1064.106,150.35717990113636L1092.006,147.9715564515001L1119.906,146.19620191699843L1147.806,145.60852069627313L1175.706,143.71302312642453L1203.606,141.78788623406464L1231.506,140.91779385121075L1259.4060000000002,140.96310391683755L1287.306,140.79539483865526L1315.206,139.86339528162964L139.5,179.9777953301746L167.4,176.30005506355332L195.3,172.4617538981997L223.20000000000002,168.24820415543215L251.1,166.19109555911734L279,162.96857712013946L306.9,161.56019019084476L334.8,158.56585680391214L362.7,157.08273162462945L390.6,155.7923367043014L418.5,154.2237171851618L446.40000000000003,153.81334065882535L474.3,153.3716026623722L502.2,152.0852043571083L530.1,150.23677199874894L532.053,187.16617841998286L559.953,184.64958824536205L587.853,181.0431560048576L615.753,178.13082619338553L643.653,173.90142438774132L671.553,172.0298421951476L699.453,169.7879720593549L727.353,167.82432261748048L755.253,166.5341891926986L783.153,164.617625804934L811.053,162.9546653604509L838.9530000000001,161.46196910076137L866.853,160.66216734745032L894.7529999999999,159.89243935217817L922.653,159.10043922970473L139.5,197.41953463674432L167.4,187.26170388587212L195.3,177.9892906644784L223.20000000000002,169.52798737265914L251.1,161.81220550701437L279,154.76234854891632L306.9,148.33635782846198L334.8,142.44707482580188L362.7,137.07821262628002L390.6,132.19301121520883L418.5,127.75285153005186L446.40000000000003,123.65702953705141L474.3,119.91329628768295L502.2,116.4880551736282L530.1,113.3894485904172L532.053,152.95211655776544L559.953,146.68140896881593L587.853,140.9577925187568L615.753,135.73020555397318L643.653,130.9551748653147L671.553,126.56031887310408L699.453,122.55351983145829L727.353,118.92980655514737L755.253,115.60241658121925L783.153,112.56975320007871L811.053,109.81361886179332L838.9530000000001,107.28622288031283L866.853,104.98449295647822L894.7529999999999,102.87360978883459L922.653,100.95568430760977L139.5,144.334764094265L167.4,138.81357412787443L195.3,133.76992485337897L223.20000000000002,129.1638726285276L251.1,124.95591066721363L279,121.1150019855088L306.9,117.59856436790113L334.8,114.39972964489039L362.7,111.46849604177572L390.6,108.79305897899843L418.5,106.36628677161463L446.40000000000003,104.13533984584382L474.3,102.08991454076903L502.2,100.23096795275421L530.1,98.53560208931668L139.5,142.12525243689726L167.4,136.7958939210212L195.3,131.9273719155281L223.20000000000002,127.47524698485319L251.1,123.40666404950235L279,119.68705435341138L306.9,116.30357613606918L334.8,113.20127357697805L362.7,110.39918030577451L390.6,107.81549001144231L418.5,105.46475464428312L446.40000000000003,103.31274589560974L474.3,101.35749808630186L502.2,99.56128684830645L530.1,97.92376678896005L532.053,138.82910724917272L559.953,133.7848817481661L587.853,129.1829880586752L615.753,124.96505260412371L643.653,121.10773642975744L671.553,117.60099217992052L699.453,114.40358332859279L727.353,111.48173714090365L755.253,108.81149436554557L783.153,106.3753464589492L811.053,104.14786505803306L838.9530000000001,102.11695796608927L866.853,100.25621246566334L894.7529999999999,98.54463529798136L922.653,96.9999399973147" style="fill: none;" fill="none"></path></g></g></g></g><g opacity="0.2"><g><g><g><path stroke="rgb(255, 112, 67)" stroke-width="2px" d="M139.5,599.7521552841179L167.4,79.60452239513398L195.3,80.91259013414384L223.20000000000002,81.02580617666246L251.1,80.95765124559404L279,81.2898642897606L306.9,81.34478251934053L334.8,81.44549410343171L362.7,81.99580292701722L390.6,81.99653517007829L418.5,83.02832196950914L446.40000000000003,84.73118137121202L474.3,85.7993550181389L502.2,87.22621511220933L530.1,90.5471063733101L139.5,599.5799791535362L167.4,80.59141706228257L195.3,80.74344198703767L223.20000000000002,80.87513308525087L251.1,81.12353246212007L279,81.35418902635575L306.9,80.73144446611406L334.8,81.18746291399003L362.7,80.85632007122041L390.6,81.14690791368486L418.5,81.82383846044542L446.40000000000003,81.42961006164552L474.3,80.53666781187059L502.2,81.45568917989732L530.1,81.54727588891984L532.053,568.2169500879943L559.953,81.75399373769761L587.853,81.99856292009355L615.753,81.97039972543718L643.653,82.72044192552568L671.553,84.67384110689164L699.453,82.70061503648759L727.353,84.43175028562547L755.253,83.50005548000337L783.153,86.17443244457246L811.053,88.71852647066117L838.9530000000001,86.00196104049684L866.853,86.60251300334932L894.7529999999999,85.97069989442826L922.653,87.5031719684601L924.6059999999999,569.7373295903205L952.506,84.74548827409745L980.406,87.21466820240022L1008.306,86.9436819434166L1036.2060000000001,96.24987165927888L1064.106,90.46391229629518L1092.006,96.76587771177293L1119.906,89.34876244068147L1147.806,93.77646725177766L1175.706,90.24880181550981L139.5,600.0924934099428L167.4,101.09264563322068L195.3,91.92023109197618L223.20000000000002,98.1199641108513L251.1,96.21737133264543L279,98.09180091619493L306.9,97.40152101516725L334.8,105.28383593559266L362.7,103.25231205224992L390.6,99.04050629138948L418.5,105.96408973932267L446.40000000000003,98.35619698762895L474.3,103.89741818904878L502.2,101.98384176492692L530.1,103.2208256006241L532.053,570.6913965336978L559.953,102.70003180503846L587.853,104.76461927890779L615.753,115.07820646762849L643.653,111.06410633325578L671.553,105.25156091451646L699.453,115.08468400239946L727.353,118.54774307012559L755.253,108.85594289302827L783.153,116.69730852842332L811.053,115.68760167360307L838.9530000000001,117.05154519081117L866.853,116.28635119199754L894.7529999999999,126.86562995910643L922.653,120.05926172733308L924.6059999999999,575.675326199457L952.506,129.91773169040678L980.406,119.49498395919801L1008.306,117.0649508714676L1036.2060000000001,125.0184623479843L1064.106,124.63870983123778L1092.006,122.93956797122954L1119.906,127.56745676994322L1147.806,139.44193269610403L1175.706,123.82321636676787L1203.606,121.58688973188401L1231.506,131.78759883642195L1259.4060000000002,141.43856238126753L1287.306,139.03553779721258L1315.206,130.08338760137556L139.5,600.9236434103921L167.4,137.70699541568754L195.3,132.18362967967985L223.20000000000002,124.03213094472883L251.1,144.60416178703306L279,129.1519181013107L306.9,146.78072612285612L334.8,127.14354436397551L362.7,141.5188838124275L390.6,142.25095789432524L418.5,137.76261772513388L446.40000000000003,149.50683887600897L474.3,148.7359840750694L502.2,138.5856589257717L530.1,130.83917509317396L532.053,574.7068766646087L559.953,158.2402173757553L587.853,143.1968187868595L615.753,147.56845067739485L643.653,129.51747636795042L671.553,152.3891728699207L699.453,146.26142497658728L727.353,147.21745278239248L755.253,152.99530114531515L783.153,144.5048583626747L811.053,145.5032436132431L838.9530000000001,145.79732369184492L866.853,152.26888786554335L894.7529999999999,151.81475635170935L922.653,150.78902463912962L139.5,599.5482669563032L167.4,80.66323320865632L195.3,80.6825531601906L223.20000000000002,80.73319058418275L251.1,80.84105561971666L279,80.77954720258714L306.9,80.90053628683091L334.8,80.64357529878617L362.7,80.73611955642701L390.6,80.9265590786934L418.5,81.15676503181459L446.40000000000003,80.67449848651887L474.3,80.62566350698472L502.2,80.54275106191636L530.1,80.87192248106004L532.053,568.1323513716459L559.953,80.87507675886155L587.853,80.89276324510575L615.753,80.87062697410585L643.653,80.84482948780061L671.553,80.43961744308473L699.453,80.50518136024476L727.353,80.90166281461717L755.253,80.68396131992341L783.153,80.74423055648805L811.053,80.89005957841874L838.9530000000001,80.76309989690782L866.853,80.82956503629686L894.7529999999999,80.7214746952057L922.653,80.82849483489991L139.5,599.5656828118488L167.4,80.87282370328904L195.3,80.84060500860215L223.20000000000002,80.82680504322053L251.1,80.79650144577028L279,80.80754141807557L306.9,80.69618414640428L334.8,80.83035360574723L362.7,80.70739309787751L390.6,80.71634899377824L418.5,80.8991281270981L446.40000000000003,80.7232208132744L474.3,80.6247059583664L502.2,80.72271387577058L530.1,80.7440052509308L139.5,599.5660366119816L167.4,80.86826126575471L195.3,80.83587359189988L223.20000000000002,80.75352441072465L251.1,80.70992778539659L279,80.6525311946869L306.9,80.79650144577028L334.8,80.64492713212968L362.7,80.993305850029L390.6,80.7015914797783L418.5,80.79554389715196L446.40000000000003,80.72902243137361L474.3,80.83863358497621L502.2,80.71139227151872L530.1,80.73921750783921L532.053,568.1000869117677L559.953,80.84950457811357L587.853,80.88955264091493L615.753,80.70097188949586L643.653,80.62808554172517L671.553,80.80033164024354L699.453,80.84916661977769L727.353,80.819144654274L755.253,80.78929166793824L783.153,80.80979447364808L811.053,80.77211211919786L838.9530000000001,80.8041055083275L866.853,80.72907875776292L894.7529999999999,80.58291177749635L922.653,80.7895169734955" style="fill: none;" fill="none"></path></g></g></g></g></g></g><g transform="translate(60, 378)" clip-path="url(#clip_1)"><clipPath id="clip_1"><rect width="1395" height="22"></rect></clipPath><g><g><line x1="0" y1="0" x2="0" y2="5" style="visibility: inherit;" fill="rgb(0, 0, 0)" stroke="rgb(204, 204, 204)" stroke-width="1px"></line><line x1="139.5" y1="0" x2="139.5" y2="5" style="visibility: inherit;" fill="rgb(0, 0, 0)" stroke="rgb(204, 204, 204)" stroke-width="1px"></line><line x1="279" y1="0" x2="279" y2="5" style="visibility: inherit;" fill="rgb(0, 0, 0)" stroke="rgb(204, 204, 204)" stroke-width="1px"></line><line x1="418.5" y1="0" x2="418.5" y2="5" style="visibility: inherit;" fill="rgb(0, 0, 0)" stroke="rgb(204, 204, 204)" stroke-width="1px"></line><line x1="558" y1="0" x2="558" y2="5" style="visibility: inherit;" fill="rgb(0, 0, 0)" stroke="rgb(204, 204, 204)" stroke-width="1px"></line><line x1="697.5" y1="0" x2="697.5" y2="5" style="visibility: inherit;" fill="rgb(0, 0, 0)" stroke="rgb(204, 204, 204)" stroke-width="1px"></line><line x1="837" y1="0" x2="837" y2="5" style="visibility: inherit;" fill="rgb(0, 0, 0)" stroke="rgb(204, 204, 204)" stroke-width="1px"></line><line x1="976.4999999999999" y1="0" x2="976.4999999999999" y2="5" style="visibility: inherit;" fill="rgb(0, 0, 0)" stroke="rgb(204, 204, 204)" stroke-width="1px"></line><line x1="1116" y1="0" x2="1116" y2="5" style="visibility: inherit;" fill="rgb(0, 0, 0)" stroke="rgb(204, 204, 204)" stroke-width="1px"></line><line x1="1255.5" y1="0" x2="1255.5" y2="5" style="visibility: inherit;" fill="rgb(0, 0, 0)" stroke="rgb(204, 204, 204)" stroke-width="1px"></line><line x1="1395" y1="0" x2="1395" y2="5" style="visibility: inherit;" fill="rgb(0, 0, 0)" stroke="rgb(204, 204, 204)" stroke-width="1px"></line></g><g transform="translate(0, 8)"><text x="0" y="0" dx="0em" dy="0.95em" style="text-anchor: middle; visibility: hidden; font-family: &quot;Helvetica Neue&quot;, sans-serif; font-size: 12px; font-weight: 200;" fill="rgb(50, 49, 63)" stroke="none" stroke-width="1px">-500</text><text x="139.5" y="0" dx="0em" dy="0.95em" style="text-anchor: middle; visibility: inherit; font-family: &quot;Helvetica Neue&quot;, sans-serif; font-size: 12px; font-weight: 200;" fill="rgb(50, 49, 63)" stroke="none" stroke-width="1px">0</text><text x="279" y="0" dx="0em" dy="0.95em" style="text-anchor: middle; visibility: inherit; font-family: &quot;Helvetica Neue&quot;, sans-serif; font-size: 12px; font-weight: 200;" fill="rgb(50, 49, 63)" stroke="none" stroke-width="1px">500</text><text x="418.5" y="0" dx="0em" dy="0.95em" style="text-anchor: middle; visibility: inherit; font-family: &quot;Helvetica Neue&quot;, sans-serif; font-size: 12px; font-weight: 200;" fill="rgb(50, 49, 63)" stroke="none" stroke-width="1px">1k</text><text x="558" y="0" dx="0em" dy="0.95em" style="text-anchor: middle; visibility: inherit; font-family: &quot;Helvetica Neue&quot;, sans-serif; font-size: 12px; font-weight: 200;" fill="rgb(50, 49, 63)" stroke="none" stroke-width="1px">1.5k</text><text x="697.5" y="0" dx="0em" dy="0.95em" style="text-anchor: middle; visibility: inherit; font-family: &quot;Helvetica Neue&quot;, sans-serif; font-size: 12px; font-weight: 200;" fill="rgb(50, 49, 63)" stroke="none" stroke-width="1px">2k</text><text x="837" y="0" dx="0em" dy="0.95em" style="text-anchor: middle; visibility: inherit; font-family: &quot;Helvetica Neue&quot;, sans-serif; font-size: 12px; font-weight: 200;" fill="rgb(50, 49, 63)" stroke="none" stroke-width="1px">2.5k</text><text x="976.4999999999999" y="0" dx="0em" dy="0.95em" style="text-anchor: middle; visibility: inherit; font-family: &quot;Helvetica Neue&quot;, sans-serif; font-size: 12px; font-weight: 200;" fill="rgb(50, 49, 63)" stroke="none" stroke-width="1px">3k</text><text x="1116" y="0" dx="0em" dy="0.95em" style="text-anchor: middle; visibility: inherit; font-family: &quot;Helvetica Neue&quot;, sans-serif; font-size: 12px; font-weight: 200;" fill="rgb(50, 49, 63)" stroke="none" stroke-width="1px">3.5k</text><text x="1255.5" y="0" dx="0em" dy="0.95em" style="text-anchor: middle; visibility: inherit; font-family: &quot;Helvetica Neue&quot;, sans-serif; font-size: 12px; font-weight: 200;" fill="rgb(50, 49, 63)" stroke="none" stroke-width="1px">4k</text><text x="1395" y="0" dx="0em" dy="0.95em" style="text-anchor: middle; visibility: hidden; font-family: &quot;Helvetica Neue&quot;, sans-serif; font-size: 12px; font-weight: 200;" fill="rgb(50, 49, 63)" stroke="none" stroke-width="1px">4.5k</text></g><line x1="0" y1="0" x2="1395" y2="0" fill="rgb(0, 0, 0)" stroke="rgb(204, 204, 204)" stroke-width="1px"></line></g></g></g></g></svg>